<svg width="375" height="17" viewBox="0 0 375 17" fill="none" xmlns="http://www.w3.org/2000/svg">
<path d="M185.176 14.1591C184.487 14.1591 183.882 13.995 183.362 13.6669C182.844 13.3388 182.44 12.8797 182.148 12.2898C181.86 11.6998 181.716 11.0104 181.716 10.2216C181.716 9.42614 181.86 8.73177 182.148 8.13849C182.44 7.54522 182.844 7.08452 183.362 6.75639C183.882 6.42827 184.487 6.2642 185.176 6.2642C185.866 6.2642 186.469 6.42827 186.986 6.75639C187.506 7.08452 187.911 7.54522 188.199 8.13849C188.491 8.73177 188.636 9.42614 188.636 10.2216C188.636 11.0104 188.491 11.6998 188.199 12.2898C187.911 12.8797 187.506 13.3388 186.986 13.6669C186.469 13.995 185.866 14.1591 185.176 14.1591ZM185.176 13.1051C185.7 13.1051 186.131 12.9709 186.469 12.7024C186.807 12.4339 187.057 12.081 187.219 11.6435C187.382 11.206 187.463 10.732 187.463 10.2216C187.463 9.71117 187.382 9.23556 187.219 8.79474C187.057 8.35393 186.807 7.99763 186.469 7.72585C186.131 7.45407 185.7 7.31818 185.176 7.31818C184.652 7.31818 184.222 7.45407 183.884 7.72585C183.545 7.99763 183.295 8.35393 183.133 8.79474C182.97 9.23556 182.889 9.71117 182.889 10.2216C182.889 10.732 182.97 11.206 183.133 11.6435C183.295 12.081 183.545 12.4339 183.884 12.7024C184.222 12.9709 184.652 13.1051 185.176 13.1051ZM190.427 14V6.36364H191.561V7.51705H191.64C191.78 7.1392 192.032 6.83262 192.396 6.5973C192.761 6.36198 193.172 6.24432 193.629 6.24432C193.715 6.24432 193.823 6.24597 193.952 6.24929C194.081 6.2526 194.179 6.25758 194.246 6.2642V7.45739C194.206 7.44744 194.115 7.43253 193.972 7.41264C193.833 7.38944 193.685 7.37784 193.53 7.37784C193.158 7.37784 192.827 7.45573 192.535 7.61151C192.247 7.76397 192.018 7.97609 191.849 8.24787C191.684 8.51634 191.601 8.82292 191.601 9.16761V14H190.427Z" fill="#474747"/>
<line y1="8.5" x2="153" y2="8.5" stroke="white"/>
<line x1="222" y1="8.5" x2="375" y2="8.5" stroke="white"/>
</svg>
