<svg width="349" height="349" viewBox="0 0 349 349" fill="none" xmlns="http://www.w3.org/2000/svg">
<path d="M90.2028 31.3818H37.3921V86.4331H90.2028V31.3818Z" fill="#E0E0E0"/>
<path d="M86.6222 31.3818H33.8115V86.4331H86.6222V31.3818Z" fill="#FAFAFA"/>
<path d="M86.6429 86.4543H33.7974V31.3682H86.6429V86.4543ZM33.8323 86.4543H86.608V31.41H33.8323V86.4543Z" fill="#E0E0E0"/>
<path d="M79.5235 38.7808H40.9102V79.0344H79.5235V38.7808Z" fill="white"/>
<path d="M40.91 79.2998C40.6399 79.707 40.3211 80.0796 39.9607 80.4096C39.3395 81.0588 38.474 81.9382 37.5038 82.9015C36.5335 83.8647 35.6401 84.7093 34.984 85.3096C34.6468 85.661 34.2723 85.9746 33.8672 86.2449C34.1369 85.8437 34.4558 85.4779 34.8165 85.156C35.4307 84.4999 36.2962 83.6204 37.2734 82.6572C38.2506 81.6939 39.1441 80.8494 39.8002 80.2421C40.1315 79.8852 40.5041 79.5688 40.91 79.2998Z" fill="#E0E0E0"/>
<path d="M79.5234 79.2017C79.9311 79.4738 80.3038 79.7949 80.6333 80.1579C81.2824 80.7722 82.1689 81.6377 83.1251 82.6079C84.0814 83.5781 84.9329 84.4716 85.5402 85.1347C85.8929 85.4688 86.2045 85.8437 86.4685 86.2515C86.0667 85.9771 85.6968 85.6587 85.3657 85.3022C84.7166 84.6879 83.8301 83.8154 82.8738 82.8382C81.9176 81.861 81.059 80.9746 80.4518 80.3115C80.0978 79.9812 79.786 79.6084 79.5234 79.2017Z" fill="#E0E0E0"/>
<path d="M79.4185 38.8924C79.6934 38.4868 80.0143 38.1144 80.3747 37.7825C80.989 37.1334 81.8545 36.2469 82.8317 35.2907C83.8089 34.3344 84.6953 33.4829 85.3515 32.8756C85.6856 32.5229 86.0605 32.2113 86.4683 31.9473C86.1967 32.3512 85.878 32.7214 85.519 33.0501C84.9047 33.6992 84.0322 34.5857 83.062 35.542C82.0918 36.4982 81.1914 37.3568 80.5353 37.964C80.2018 38.3174 79.8268 38.6291 79.4185 38.8924Z" fill="#E0E0E0"/>
<path d="M40.8053 38.9902C40.4009 38.7138 40.0287 38.393 39.6955 38.034C39.0463 37.4197 38.1669 36.5542 37.2106 35.584C36.2543 34.6138 35.4028 33.7134 34.7955 33.0572C34.4402 32.7256 34.1283 32.3503 33.8672 31.9404C34.2712 32.212 34.6414 32.5307 34.97 32.8897C35.6192 33.504 36.5056 34.3765 37.4619 35.3467C38.4181 36.3169 39.2767 37.2173 39.8839 37.8804C40.2347 38.2118 40.5441 38.5845 40.8053 38.9902Z" fill="#E0E0E0"/>
<path d="M79.4184 79.0343C79.4184 79.0343 79.4184 78.9645 79.4184 78.8388C79.4184 78.7132 79.4184 78.5177 79.4184 78.2734C79.4184 77.7709 79.4184 77.045 79.4184 76.1027C79.4184 74.1971 79.4184 71.4261 79.4184 67.9012C79.4184 60.8514 79.3765 50.8071 79.3416 38.7806L79.4882 38.9272H40.9865L41.161 38.7527C41.161 53.5293 41.161 67.3707 41.161 79.0064L41.0145 78.8598L68.9345 78.9365L76.766 78.9714H78.86H76.8149H69.0112L41.0354 79.0482H40.7632V78.9016C40.7632 67.245 40.7632 53.4246 40.7632 38.648V38.4805H40.9377H79.4394H79.572V38.627C79.572 50.6955 79.5092 60.7676 79.4952 67.8384C79.4952 71.3284 79.4952 74.1203 79.4533 76.0119C79.4533 76.9403 79.4533 77.6592 79.4533 78.1548C79.4533 78.3921 79.4533 78.5666 79.4533 78.6992C79.4643 78.8121 79.4524 78.9261 79.4184 79.0343Z" fill="#E0E0E0"/>
<path d="M66.659 52.4683H53.7739V65.3533H66.659V52.4683Z" fill="#EBEBEB"/>
<path d="M313.262 21.8403H238.018V146.391H313.262V21.8403Z" fill="#E0E0E0"/>
<path d="M310.757 21.8403H235.512V146.391H310.757V21.8403Z" fill="#EBEBEB"/>
<path d="M307.553 24.3672H238.716V143.872H307.553V24.3672Z" fill="white"/>
<path d="M294.151 39.8975H251.825V128.341H294.151V39.8975Z" fill="#EBEBEB"/>
<path d="M251.825 97.022C251.727 88.7647 259.154 80.6958 267.334 79.572C271.236 79.0206 275.382 79.7954 279.026 78.3017C285.531 75.6283 287.576 67.008 294.151 64.4185L294.452 128.341H251.825V97.022Z" fill="#E0E0E0"/>
<path d="M193.053 225.384H63.1899V285.279H193.053V225.384Z" fill="#F5F5F5"/>
<path d="M189.961 282.46H66.1636V228.539H189.961V282.46ZM66.9663 281.65H189.158V229.349H66.9663V281.65Z" fill="#E0E0E0"/>
<path d="M224.777 225.384H193.053V285.279H224.777V225.384Z" fill="#E0E0E0"/>
<path d="M66.5686 245.228H189.556C189.594 245.22 189.628 245.2 189.652 245.17C189.676 245.14 189.69 245.102 189.69 245.064C189.69 245.025 189.676 244.988 189.652 244.958C189.628 244.928 189.594 244.908 189.556 244.9H66.5686C66.5308 244.908 66.497 244.928 66.4727 244.958C66.4483 244.988 66.4351 245.025 66.4351 245.064C66.4351 245.102 66.4483 245.14 66.4727 245.17C66.497 245.2 66.5308 245.22 66.5686 245.228Z" fill="#E0E0E0"/>
<path d="M128.467 245.06C128.805 239.643 128.819 234.21 128.509 228.79C128.509 228.746 128.491 228.703 128.46 228.672C128.428 228.64 128.386 228.623 128.341 228.623C128.297 228.623 128.254 228.64 128.223 228.672C128.191 228.703 128.174 228.746 128.174 228.79C127.86 234.209 127.874 239.643 128.216 245.06C128.216 245.094 128.229 245.126 128.252 245.149C128.276 245.173 128.308 245.186 128.341 245.186C128.375 245.186 128.407 245.173 128.43 245.149C128.454 245.126 128.467 245.094 128.467 245.06Z" fill="#E0E0E0"/>
<path d="M161.573 236.929C161.575 237.262 161.477 237.588 161.293 237.866C161.109 238.143 160.847 238.36 160.54 238.488C160.232 238.617 159.894 238.651 159.567 238.587C159.241 238.523 158.94 238.363 158.704 238.128C158.468 237.893 158.307 237.593 158.242 237.267C158.176 236.94 158.209 236.602 158.336 236.294C158.463 235.986 158.679 235.723 158.956 235.538C159.233 235.353 159.558 235.254 159.891 235.254C160.336 235.254 160.763 235.43 161.078 235.744C161.393 236.058 161.571 236.484 161.573 236.929Z" fill="#E0E0E0"/>
<path d="M97.0223 236.929C97.0223 237.26 96.924 237.584 96.74 237.86C96.5559 238.135 96.2942 238.35 95.9881 238.477C95.682 238.604 95.3452 238.637 95.0203 238.572C94.6953 238.507 94.3968 238.348 94.1625 238.114C93.9282 237.879 93.7687 237.581 93.7041 237.256C93.6394 236.931 93.6726 236.594 93.7994 236.288C93.9262 235.982 94.1409 235.72 94.4164 235.536C94.6919 235.352 95.0158 235.254 95.3471 235.254C95.5671 235.254 95.7849 235.297 95.9881 235.381C96.1914 235.466 96.3761 235.589 96.5316 235.745C96.6872 235.9 96.8106 236.085 96.8948 236.288C96.9789 236.491 97.0223 236.709 97.0223 236.929Z" fill="#E0E0E0"/>
<path d="M129.738 255.468C129.738 255.799 129.639 256.123 129.455 256.398C129.271 256.674 129.01 256.889 128.703 257.015C128.397 257.142 128.061 257.175 127.736 257.111C127.411 257.046 127.112 256.887 126.878 256.652C126.644 256.418 126.484 256.119 126.419 255.795C126.355 255.47 126.388 255.133 126.515 254.827C126.642 254.521 126.856 254.259 127.132 254.075C127.407 253.891 127.731 253.792 128.062 253.792C128.283 253.792 128.501 253.834 128.705 253.918C128.908 254.002 129.093 254.125 129.249 254.281C129.405 254.437 129.528 254.622 129.612 254.826C129.696 255.029 129.739 255.247 129.738 255.468Z" fill="#E0E0E0"/>
<path d="M78.7137 285.279L72.0269 322.881H75.7891L88.1158 285.279H78.7137Z" fill="#E0E0E0"/>
<path d="M183.867 285.279L189.458 322.943H185.696L174.465 285.279H183.867Z" fill="#E0E0E0"/>
<path d="M208.974 285.279L215.305 322.943H211.543L199.572 285.279H208.974Z" fill="#E0E0E0"/>
<path d="M129.626 272.45C129.626 272.781 129.528 273.105 129.343 273.381C129.159 273.656 128.898 273.871 128.592 273.998C128.286 274.125 127.949 274.158 127.624 274.093C127.299 274.028 127 273.869 126.766 273.635C126.532 273.4 126.372 273.102 126.308 272.777C126.243 272.452 126.276 272.115 126.403 271.809C126.53 271.503 126.744 271.241 127.02 271.057C127.295 270.873 127.619 270.775 127.951 270.775C128.394 270.777 128.819 270.954 129.133 271.268C129.447 271.581 129.624 272.006 129.626 272.45Z" fill="#E0E0E0"/>
<path d="M66.5686 263.774H189.556C189.594 263.766 189.628 263.745 189.652 263.716C189.676 263.686 189.69 263.648 189.69 263.61C189.69 263.571 189.676 263.534 189.652 263.504C189.628 263.474 189.594 263.454 189.556 263.446H66.5686C66.5308 263.454 66.497 263.474 66.4727 263.504C66.4483 263.534 66.4351 263.571 66.4351 263.61C66.4351 263.648 66.4483 263.686 66.4727 263.716C66.497 263.745 66.5308 263.766 66.5686 263.774Z" fill="#E0E0E0"/>
<path d="M153.853 205.051L153.812 197.059L114.55 197.264L114.591 205.256L153.853 205.051Z" fill="#E0E0E0"/>
<path d="M158.569 225.207L158.504 212.79L114.74 213.019L114.805 225.436L158.569 225.207Z" fill="#F5F5F5"/>
<path d="M150.147 225.133C150.028 225.133 149.931 222.341 149.931 218.928C149.931 215.514 150.028 212.715 150.147 212.715C150.266 212.715 150.356 215.507 150.356 218.928C150.356 222.348 150.266 225.133 150.147 225.133Z" fill="#E0E0E0"/>
<path d="M151.983 225.133C151.864 225.133 151.773 222.341 151.773 218.928C151.773 215.514 151.864 212.715 151.983 212.715C152.101 212.715 152.199 215.507 152.199 218.928C152.199 222.348 152.101 225.133 151.983 225.133Z" fill="#E0E0E0"/>
<path d="M121.396 225.133C121.278 225.133 121.187 222.341 121.187 218.928C121.187 215.514 121.278 212.715 121.396 212.715C121.515 212.715 121.613 215.507 121.613 218.928C121.613 222.348 121.515 225.133 121.396 225.133Z" fill="#E0E0E0"/>
<path d="M123.239 225.133C123.12 225.133 123.022 222.341 123.022 218.928C123.022 215.514 123.12 212.715 123.239 212.715C123.446 214.779 123.516 216.854 123.448 218.928C123.515 220.998 123.445 223.071 123.239 225.133Z" fill="#E0E0E0"/>
<path d="M127.246 219.123C127.246 219.004 131.664 218.907 137.108 218.907C142.553 218.907 146.971 219.004 146.971 219.123C146.971 219.242 142.553 219.339 137.108 219.339C131.664 219.339 127.246 219.242 127.246 219.123Z" fill="#E0E0E0"/>
<path d="M175.005 212.723L174.963 204.731L120.96 205.014L121.002 213.006L175.005 212.723Z" fill="#EBEBEB"/>
<path d="M167.276 211.738C166.762 211.745 166.258 211.599 165.827 211.318C165.396 211.038 165.059 210.635 164.858 210.162C164.657 209.689 164.601 209.167 164.697 208.662C164.794 208.158 165.038 207.693 165.4 207.328C165.761 206.962 166.223 206.713 166.727 206.611C167.231 206.509 167.753 206.559 168.229 206.755C168.704 206.951 169.11 207.284 169.395 207.711C169.68 208.139 169.832 208.641 169.831 209.155C169.832 209.493 169.768 209.827 169.64 210.139C169.513 210.452 169.325 210.736 169.088 210.976C168.851 211.216 168.569 211.406 168.258 211.537C167.947 211.668 167.613 211.736 167.276 211.738Z" fill="#E0E0E0"/>
<path d="M160.261 209.951V208.353H124.112V209.951H160.261Z" fill="#E0E0E0"/>
<path d="M226.85 161.07L224.4 161.468L217.846 154.886L217.057 150C217.057 150 213.232 150.384 214.719 156.708C216.206 163.032 215.452 161.489 215.452 161.489C215.452 161.489 207.418 162.822 206.867 163.625C206.462 164.211 207.53 172.231 208.151 176.573C208.266 177.627 208.731 178.612 209.471 179.371C210.211 180.13 211.184 180.619 212.234 180.761C212.528 180.799 212.826 180.799 213.121 180.761C215.124 180.44 225.105 177.152 225.105 177.152L229.335 176.454L226.85 161.07Z" fill="#EBEBEB"/>
<path d="M233.635 158.592L234.835 175.589L230.647 176.266L227.988 159.856L233.635 158.592Z" fill="#EBEBEB"/>
<path d="M88.1088 116.859C87.5011 115.493 86.4872 114.347 85.2051 113.578C83.98 112.771 82.5317 112.371 81.066 112.434C79.8262 112.516 78.6481 113.005 77.7133 113.823C76.7786 114.642 76.1392 115.746 75.8938 116.964C75.0275 116.133 73.919 115.6 72.7291 115.442C71.5393 115.283 70.33 115.508 69.2767 116.084C68.0063 116.814 66.9978 117.925 66.394 119.26C65.7223 120.597 65.4785 122.108 65.696 123.588C66.0029 125.47 66.9086 127.203 68.2786 128.53C69.8033 129.835 71.6169 130.759 73.5694 131.224C76.7593 132.068 80.9333 133.081 80.9333 133.081C80.9333 133.081 83.2996 129.946 85.5401 127.497C86.9428 126.062 87.9816 124.312 88.5695 122.394C89.0113 120.547 88.8499 118.607 88.1088 116.859Z" fill="#EBEBEB"/>
<path d="M277.26 173.732C277.085 172.824 276.634 171.993 275.969 171.352C275.347 170.696 274.533 170.253 273.644 170.088C272.886 169.963 272.108 170.091 271.43 170.454C270.752 170.816 270.213 171.392 269.896 172.092C269.491 171.472 268.899 170.998 268.206 170.737C267.514 170.476 266.756 170.442 266.043 170.64C265.175 170.902 264.412 171.429 263.858 172.147C263.27 172.861 262.914 173.738 262.839 174.66C262.763 175.834 263.066 177.001 263.705 177.99C264.435 178.984 265.392 179.791 266.497 180.342C268.298 181.298 270.685 182.492 270.685 182.492C270.685 182.492 272.541 180.928 274.231 179.783C275.276 179.119 276.146 178.211 276.764 177.138C277.292 176.086 277.466 174.891 277.26 173.732Z" fill="#EBEBEB"/>
<path d="M188.153 28.7504C189.015 28.3631 189.746 27.7344 190.257 26.9403C190.769 26.1462 191.039 25.2209 191.036 24.2763C191.073 23.6595 190.984 23.0417 190.774 22.4606C190.564 21.8795 190.238 21.3473 189.815 20.8966C189.392 20.4458 188.882 20.086 188.316 19.8391C187.75 19.5922 187.139 19.4633 186.521 19.4605C185.903 19.4576 185.291 19.5808 184.723 19.8225C184.154 20.0642 183.641 20.4193 183.214 20.8661C182.787 21.3129 182.456 21.8421 182.241 22.4212C182.026 23.0004 181.931 23.6173 181.962 24.2344C181.944 25.1884 182.208 26.1264 182.723 26.9302C183.237 27.7339 183.978 28.3673 184.852 28.7504C177.872 29.8044 178.193 37.3847 178.193 37.3847L194.693 37.4615C194.693 37.4615 195.07 29.7974 188.153 28.7504Z" fill="#EBEBEB"/>
<path d="M55.4491 174.982C57.0579 174.373 58.4529 173.306 59.4615 171.913C60.4702 170.52 61.0481 168.861 61.1239 167.143C61.4031 162.257 57.948 158.146 53.397 157.881C48.8461 157.615 44.9373 161.329 44.672 166.18C44.5463 167.909 44.9352 169.638 45.7898 171.147C46.6443 172.656 47.9263 173.878 49.4743 174.66C36.7009 175.882 36.5264 189.688 36.5264 189.688L66.4915 191.447C66.4915 191.447 67.9084 177.557 55.4491 174.982Z" fill="#F5F5F5"/>
<path d="M320.647 322.944C320.647 323.048 254.895 323.125 173.809 323.125C92.7221 323.125 26.9565 323.048 26.9565 322.944C26.9565 322.839 92.6942 322.762 173.809 322.762C254.923 322.762 320.647 322.846 320.647 322.944Z" fill="#263238"/>
<path d="M270.028 285.098C279.437 279.947 289.998 270.608 294.067 260.033C283.612 265.644 275.198 274.417 270.028 285.098Z" fill="#455A64"/>
<path d="M270.559 269.275C279.968 264.123 290.528 254.784 294.598 244.209C284.142 249.821 275.728 258.594 270.559 269.275Z" fill="#455A64"/>
<path d="M271.885 253.807C281.294 248.649 291.855 239.309 295.924 228.742C285.467 234.351 277.052 243.125 271.885 253.807Z" fill="#455A64"/>
<path d="M273.86 237.55C282.578 231.122 291.946 220.38 294.731 209.323C285.027 216.352 277.736 226.212 273.86 237.55Z" fill="#455A64"/>
<path d="M276.457 225C282.327 215.487 287.311 201.715 286.089 190.324C279.543 200.686 276.192 212.746 276.457 225Z" fill="#455A64"/>
<path d="M275.145 230.975C272.583 219.165 266.434 204.605 257.653 196.431C260.281 209.306 266.323 221.237 275.145 230.975Z" fill="#455A64"/>
<path d="M273.274 244.363C269.638 232.281 262.036 217.657 252.208 209.91C256.006 223.079 263.283 234.981 273.274 244.363Z" fill="#455A64"/>
<path d="M271.215 260.661C267.578 248.586 259.977 233.956 250.156 226.208C253.948 239.378 261.223 251.281 271.215 260.661Z" fill="#455A64"/>
<path d="M270.245 280.526C266.608 268.444 259.007 253.814 249.179 246.073C252.978 259.241 260.255 271.143 270.245 280.526Z" fill="#455A64"/>
<path d="M276.68 222.613C276.651 222.675 276.63 222.741 276.618 222.809C276.585 222.958 276.543 223.146 276.492 223.374C276.373 223.905 276.22 224.644 276.017 225.573C275.612 227.485 275.082 230.263 274.482 233.705C273.881 237.146 273.239 241.25 272.618 245.829C271.997 250.408 271.445 255.447 270.978 260.759C270.51 266.071 270.231 271.138 270.035 275.752C269.84 280.366 269.784 284.526 269.791 288.023C269.798 291.52 269.833 294.34 269.91 296.287C269.945 297.243 269.973 297.99 269.987 298.535C269.987 298.772 269.987 298.968 270.021 299.121C269.998 299.126 269.977 299.14 269.963 299.159C269.949 299.179 269.943 299.203 269.945 299.227C269.948 299.251 269.959 299.273 269.977 299.289C269.995 299.305 270.018 299.314 270.042 299.314C270.066 299.314 270.09 299.305 270.108 299.289C270.126 299.273 270.137 299.251 270.14 299.227C270.142 299.203 270.136 299.179 270.122 299.159C270.108 299.14 270.087 299.126 270.063 299.121C270.063 298.968 270.063 298.772 270.063 298.535C270.063 297.99 270.063 297.236 270.063 296.287C270.063 294.333 270.063 291.513 270.063 288.023C270.063 284.533 270.196 280.38 270.391 275.766C270.587 271.152 270.908 266.099 271.362 260.794C271.815 255.489 272.388 250.45 272.974 245.871C273.56 241.292 274.182 237.188 274.754 233.746C275.326 230.305 275.808 227.52 276.15 225.608C276.317 224.665 276.45 223.926 276.541 223.395C276.583 223.158 276.611 222.969 276.638 222.816C276.662 222.751 276.676 222.682 276.68 222.613Z" fill="#455A64"/>
<path d="M276.68 222.613C276.651 222.675 276.63 222.741 276.618 222.809C276.585 222.958 276.543 223.146 276.492 223.374C276.373 223.905 276.22 224.644 276.017 225.573C275.612 227.485 275.082 230.263 274.482 233.705C273.881 237.146 273.239 241.25 272.618 245.829C271.997 250.408 271.445 255.447 270.978 260.759C270.51 266.071 270.231 271.138 270.035 275.752C269.84 280.366 269.784 284.526 269.791 288.023C269.798 291.52 269.833 294.34 269.91 296.287C269.945 297.243 269.973 297.99 269.987 298.535C269.987 298.772 269.987 298.968 270.021 299.121C269.998 299.126 269.977 299.14 269.963 299.159C269.949 299.179 269.943 299.203 269.945 299.227C269.948 299.251 269.959 299.273 269.977 299.289C269.995 299.305 270.018 299.314 270.042 299.314C270.066 299.314 270.09 299.305 270.108 299.289C270.126 299.273 270.137 299.251 270.14 299.227C270.142 299.203 270.136 299.179 270.122 299.159C270.108 299.14 270.087 299.126 270.063 299.121C270.063 298.968 270.063 298.772 270.063 298.535C270.063 297.99 270.063 297.236 270.063 296.287C270.063 294.333 270.063 291.513 270.063 288.023C270.063 284.533 270.196 280.38 270.391 275.766C270.587 271.152 270.908 266.099 271.362 260.794C271.815 255.489 272.388 250.45 272.974 245.871C273.56 241.292 274.182 237.188 274.754 233.746C275.326 230.305 275.808 227.52 276.15 225.608C276.317 224.665 276.45 223.926 276.541 223.395C276.583 223.158 276.611 222.969 276.638 222.816C276.662 222.751 276.676 222.682 276.68 222.613Z" fill="#455A64"/>
<path d="M265.938 289.209C270.286 279.982 273.406 267.034 271.194 256.948C266.34 266.961 264.513 278.173 265.938 289.209Z" fill="#263238"/>
<path d="M258.532 277.336C262.874 268.109 266.001 255.161 263.788 245.075C258.934 255.088 257.108 266.3 258.532 277.336Z" fill="#263238"/>
<path d="M251.915 265.24C256.257 256.019 259.384 243.065 257.171 232.979C252.315 242.991 250.488 254.204 251.915 265.24Z" fill="#263238"/>
<path d="M245.389 252.229C248.6 242.457 250.17 229.195 246.785 219.493C243.16 230.04 242.675 241.412 245.389 252.229Z" fill="#263238"/>
<path d="M241.124 241.557C240.747 231.192 237.634 218.237 231.157 210.622C231.362 221.69 234.829 232.451 241.124 241.557Z" fill="#263238"/>
<path d="M243.099 246.68C235.421 239.533 223.814 232.455 213.393 231.576C221.583 239.438 231.921 244.695 243.099 246.68Z" fill="#263238"/>
<path d="M248.3 257.562C239.721 250.84 226.997 244.559 216.031 244.593C225.262 252.023 236.495 256.537 248.3 257.562Z" fill="#263238"/>
<path d="M254.77 270.656C246.192 263.935 233.467 257.653 222.501 257.688C231.732 265.117 242.965 269.632 254.77 270.656Z" fill="#263238"/>
<path d="M263.844 285.74C255.266 279.019 242.548 272.737 231.576 272.772C240.809 280.197 252.04 284.711 263.844 285.74Z" fill="#263238"/>
<path d="M240.112 239.679C240.121 239.737 240.137 239.793 240.161 239.847C240.21 239.979 240.265 240.14 240.342 240.335C240.517 240.789 240.761 241.41 241.04 242.192C241.668 243.811 242.632 246.122 243.867 248.963C246.338 254.644 249.989 262.399 254.519 270.698C256.794 274.844 259.063 278.739 261.198 282.236C263.334 285.733 265.331 288.839 267.069 291.401C268.807 293.963 270.224 296.036 271.257 297.432C271.759 298.13 272.15 298.646 272.436 299.044L272.75 299.456C272.82 299.547 272.862 299.596 272.869 299.589C272.85 299.533 272.822 299.481 272.785 299.435C272.708 299.316 272.611 299.177 272.499 298.995L271.382 297.348C270.398 295.952 269.002 293.858 267.306 291.254C265.61 288.651 263.641 285.552 261.512 282.055C259.384 278.558 257.143 274.656 254.875 270.517C250.344 262.225 246.659 254.505 244.132 248.879C242.862 246.087 241.864 243.762 241.187 242.164C240.859 241.396 240.593 240.768 240.398 240.335L240.182 239.861C240.168 239.797 240.145 239.735 240.112 239.679Z" fill="#263238"/>
<path d="M244.991 290.431L288.637 290.193L288.679 298.611L284.198 298.632L280.652 322.839L253.57 322.79L249.556 298.821L245.033 298.842L244.991 290.431Z" fill="#274AA4"/>
<path d="M245.033 298.667C245.033 298.556 254.735 298.416 266.671 298.346C278.607 298.276 288.309 298.346 288.309 298.437C288.309 298.528 278.613 298.688 266.671 298.751C254.728 298.814 245.033 298.779 245.033 298.667Z" fill="#263238"/>
<path d="M59.6372 294.193L64.0137 322.943H89.4348L95.3399 294.605L59.6372 294.193Z" fill="#274AA4"/>
<path d="M91.7798 312.62C91.7798 312.704 85.2675 312.767 77.2335 312.767C69.1995 312.767 62.6802 312.704 62.6802 312.62C62.6802 312.536 69.1995 312.474 77.2335 312.474C85.2675 312.474 91.7798 312.536 91.7798 312.62Z" fill="#FAFAFA"/>
<path d="M91.8775 311.203C91.8775 311.287 85.3233 311.357 77.2195 311.357C69.1157 311.357 62.5615 311.287 62.5615 311.203C62.5615 311.119 69.1227 311.057 77.2195 311.057C85.3163 311.057 91.8775 311.126 91.8775 311.203Z" fill="#FAFAFA"/>
<path d="M91.8287 309.605C91.8287 309.688 85.2745 309.758 77.1707 309.758C69.0669 309.758 62.5127 309.688 62.5127 309.605C62.5127 309.521 69.0739 309.458 77.1707 309.458C85.2675 309.458 91.8287 309.528 91.8287 309.605Z" fill="#FAFAFA"/>
<path d="M66.9313 321.303C66.5804 320.12 66.3214 318.911 66.1566 317.688C65.8954 316.479 65.732 315.251 65.668 314.016C66.2889 316.406 66.7114 318.844 66.9313 321.303Z" fill="#FAFAFA"/>
<path d="M68.6623 321.003C68.4045 318.651 68.2439 316.29 68.1807 313.925C68.4625 315.08 68.6193 316.262 68.6483 317.45C68.7785 318.631 68.7832 319.822 68.6623 321.003Z" fill="#FAFAFA"/>
<path d="M71.8169 320.996C71.4566 319.817 71.2226 318.602 71.1189 317.374C70.9297 316.16 70.8642 314.929 70.9235 313.702C71.1561 314.906 71.3192 316.123 71.4121 317.346C71.6178 318.554 71.753 319.773 71.8169 320.996Z" fill="#FAFAFA"/>
<path d="M74.03 321.15C73.7852 319.939 73.6659 318.706 73.674 317.471C73.5857 316.238 73.6231 314.998 73.7857 313.772C73.9189 314.996 73.9818 316.226 73.9741 317.457C74.0625 318.686 74.0812 319.919 74.03 321.15Z" fill="#FAFAFA"/>
<path d="M77.9456 321.003C77.757 319.849 77.6659 318.682 77.6734 317.513C77.5744 316.352 77.5744 315.184 77.6734 314.023C77.8615 315.177 77.9503 316.344 77.9386 317.513C78.0416 318.674 78.044 319.842 77.9456 321.003Z" fill="#FAFAFA"/>
<path d="M80.8072 321.15C80.6654 319.952 80.6257 318.745 80.6886 317.541C80.6468 316.333 80.7052 315.124 80.8631 313.925C81.005 315.125 81.0447 316.335 80.9817 317.541C81.0237 318.747 80.9653 319.954 80.8072 321.15Z" fill="#FAFAFA"/>
<path d="M83.4878 320.766C83.5201 318.243 83.7535 315.727 84.1858 313.241C84.2103 314.504 84.1379 315.766 83.9694 317.017C83.9088 318.278 83.7477 319.531 83.4878 320.766Z" fill="#FAFAFA"/>
<path d="M86.9497 320.382C86.9509 319.297 87.0941 318.218 87.3755 317.171C87.5566 316.102 87.8732 315.061 88.3178 314.072C88.1648 315.138 87.9481 316.194 87.6686 317.234C87.4864 318.295 87.2464 319.346 86.9497 320.382Z" fill="#FAFAFA"/>
<path d="M84.4997 237.446C84.5029 237.492 84.5029 237.539 84.4997 237.585C84.4997 237.697 84.4299 237.83 84.3811 237.997C84.2694 238.374 84.1019 238.891 83.8995 239.547C83.697 240.203 83.4248 241.04 83.1526 242.004C82.8804 242.967 82.5384 244.098 82.2382 245.284C81.9381 246.471 81.5402 247.839 81.2471 249.291C80.9539 250.743 80.5979 252.285 80.2629 253.919C79.6556 257.199 79.0972 260.822 78.7063 264.654C78.3155 268.486 78.1619 272.15 78.113 275.48C78.113 277.148 78.113 278.733 78.1619 280.219C78.2108 281.706 78.2666 283.081 78.3364 284.337C78.4062 285.594 78.5109 286.732 78.5877 287.73C78.6645 288.728 78.7552 289.593 78.839 290.291C78.9227 290.989 78.9646 291.513 79.0065 291.911C79.0065 292.078 79.0065 292.218 79.0065 292.33C79.0065 292.441 79.0065 292.476 79.0065 292.476C79.0014 292.43 79.0014 292.383 79.0065 292.337C79.0065 292.225 78.9855 292.085 78.9437 291.918C78.8878 291.527 78.818 290.989 78.7203 290.305C78.6226 289.621 78.5109 288.749 78.4271 287.751C78.3434 286.753 78.1968 285.615 78.127 284.351C78.0572 283.088 77.9525 281.713 77.9106 280.226C77.8687 278.739 77.8478 277.148 77.8408 275.48C77.8408 272.136 78.0363 268.465 78.4132 264.626C78.7901 260.787 79.3694 257.15 79.9976 253.87C80.3327 252.229 80.6398 250.673 81.0028 249.235C81.3657 247.797 81.7008 246.443 82.0358 245.228C82.3708 244.014 82.7338 242.918 82.9921 241.962C83.2503 241.006 83.5574 240.175 83.7878 239.512C84.0181 238.849 84.1996 238.346 84.3252 237.976C84.3857 237.813 84.4346 237.681 84.4718 237.578C84.4579 237.488 84.4928 237.446 84.4997 237.446Z" fill="#455A64"/>
<path d="M79.9072 255.251C80.6107 253.181 82.0091 251.418 83.8648 250.261C84.1552 250.029 84.4984 249.873 84.8637 249.806C85.229 249.739 85.6052 249.763 85.9588 249.877C86.8453 250.303 86.9221 251.552 86.6568 252.501C86.1978 254.112 85.1746 255.505 83.7741 256.424C82.5341 257.338 80.9854 257.728 79.4604 257.513" fill="#455A64"/>
<path d="M78.3642 267.278C79.0203 264.793 81.0027 261.268 83.0548 259.733C83.3698 259.474 83.7327 259.279 84.1227 259.16C84.3189 259.104 84.526 259.097 84.7256 259.139C84.9253 259.182 85.1114 259.273 85.2674 259.405C85.4428 259.637 85.5576 259.909 85.6015 260.196C85.6453 260.484 85.6169 260.778 85.5187 261.052C85.0998 262.863 84.1842 264.521 82.8747 265.841C81.5652 267.16 79.9138 268.088 78.106 268.52" fill="#455A64"/>
<path d="M77.9385 277.86C78.9594 275.49 80.5929 273.435 82.6709 271.906C82.8932 271.702 83.1543 271.545 83.4384 271.445C83.7226 271.344 84.0242 271.301 84.3252 271.32C85.2256 271.48 85.6304 272.576 85.5537 273.49C85.3861 275.361 83.9622 276.862 82.4825 278.02C81.1276 278.959 79.6564 279.716 78.106 280.275" fill="#455A64"/>
<path d="M78.1758 285.482C79.1669 283.675 80.5445 282.109 82.2102 280.896C82.5649 280.623 82.9784 280.437 83.4178 280.352C83.6381 280.314 83.8646 280.336 84.0734 280.415C84.2823 280.495 84.4657 280.63 84.6044 280.805C85.0022 281.399 84.6044 282.201 84.1856 282.774C82.7623 284.743 80.7509 286.209 78.441 286.962" fill="#455A64"/>
<path d="M77.9804 282.376C76.2427 280.251 74.3153 278.288 72.2219 276.513C71.8938 276.233 71.482 275.94 71.0702 276.073C70.9174 276.138 70.7866 276.245 70.6937 276.383C70.6008 276.52 70.5497 276.682 70.5467 276.848C70.541 277.181 70.6152 277.512 70.7631 277.811C71.4465 279.348 72.4681 280.71 73.7516 281.796C75.0352 282.883 76.5475 283.666 78.1758 284.086" fill="#455A64"/>
<path d="M78.1759 272.478L73.6529 266.957C73.2542 266.406 72.7573 265.932 72.1871 265.561C71.8959 265.383 71.5614 265.29 71.2203 265.29C70.8793 265.29 70.5448 265.383 70.2536 265.561C69.9922 265.776 69.7956 266.06 69.686 266.38C69.5763 266.701 69.5577 267.046 69.6324 267.376C69.7955 268.037 70.0977 268.656 70.5188 269.191C71.3993 270.542 72.5152 271.724 73.8134 272.681C75.1466 273.595 76.3541 274.188 77.9456 273.951" fill="#455A64"/>
<path d="M78.7902 261.331C77.9061 258.688 76.3355 256.327 74.2392 254.491C73.9096 254.161 73.5012 253.921 73.0526 253.793C72.5882 253.753 72.1245 253.877 71.742 254.144C71.3596 254.41 71.0824 254.802 70.9586 255.252C70.8139 255.752 70.7758 256.277 70.8467 256.793C70.9176 257.308 71.0961 257.804 71.3704 258.246C71.9119 259.127 72.6238 259.891 73.4644 260.494C74.9875 261.661 76.6861 262.58 78.497 263.216" fill="#455A64"/>
<path d="M80.5981 251.392C80.1653 248.195 78.504 245.528 76.5706 242.946C76.1657 242.394 75.5934 241.822 74.9233 241.92C74.7111 241.965 74.5136 242.063 74.349 242.204C74.1844 242.346 74.0579 242.526 73.981 242.729C73.8265 243.139 73.7645 243.577 73.7995 244.014C73.8827 245.951 74.5348 247.821 75.6743 249.39C76.8139 250.959 78.3905 252.158 80.2072 252.836" fill="#455A64"/>
<path d="M81.8682 246.317C81.6556 244.677 81.5995 243.02 81.7007 241.368C81.8069 239.71 82.3751 238.114 83.341 236.762C83.7572 236.181 84.3279 235.729 84.9883 235.456C85.3193 235.325 85.6783 235.281 86.0313 235.327C86.3842 235.374 86.7195 235.509 87.0055 235.722C87.2482 235.945 87.4371 236.221 87.558 236.528C87.6788 236.835 87.7286 237.165 87.7035 237.494C87.6486 238.153 87.476 238.796 87.194 239.393C85.9934 242.29 83.9832 245.501 81.8822 246.317" fill="#455A64"/>
<path d="M62.1569 250.128C62.1659 250.263 62.1659 250.398 62.1569 250.533C62.1569 250.826 62.1569 251.231 62.1569 251.692C62.1569 252.153 62.1569 252.816 62.1569 253.528C62.1569 254.24 62.1569 255.056 62.2477 255.957C62.3244 257.758 62.4989 259.893 62.7712 262.239C63.0434 264.584 63.4692 267.188 64.0206 269.875C64.572 272.562 65.263 275.089 65.9471 277.371C66.6311 279.654 67.3431 281.671 67.9992 283.353C68.2993 284.198 68.6274 284.945 68.8926 285.615C69.1579 286.285 69.4022 286.843 69.5906 287.304C69.7791 287.765 69.9257 288.1 70.0443 288.372C70.1013 288.496 70.148 288.624 70.1839 288.756C70.1096 288.642 70.0442 288.523 69.9885 288.4C69.8628 288.135 69.6883 287.786 69.4859 287.353C69.2835 286.92 69.0043 286.341 68.7251 285.678C68.4459 285.014 68.1039 284.282 67.7828 283.43C67.0848 281.755 66.3868 279.731 65.6888 277.455C64.9908 275.18 64.2928 272.632 63.7414 269.938C63.19 267.243 62.7851 264.64 62.5059 262.26C62.2267 259.879 62.122 257.772 62.122 255.964C62.0801 255.063 62.122 254.247 62.0801 253.528C62.0383 252.809 62.0801 252.194 62.0801 251.692C62.0801 251.189 62.0801 250.826 62.129 250.533C62.1185 250.398 62.1279 250.261 62.1569 250.128Z" fill="#263238"/>
<path d="M62.8618 263.237C62.8876 261.665 63.4603 260.152 64.4812 258.958C64.6305 258.741 64.8308 258.564 65.0644 258.442C65.2981 258.32 65.5579 258.258 65.8213 258.26C66.5193 258.365 66.8334 259.195 66.8544 259.9C66.8908 261.094 66.4969 262.26 65.7446 263.188C65.094 264.077 64.1226 264.678 63.0363 264.863" fill="#263238"/>
<path d="M64.3975 271.752C64.3138 269.923 64.9001 267.096 65.968 265.61C66.128 265.365 66.3343 265.154 66.5753 264.988C66.6973 264.91 66.8366 264.861 66.9812 264.848C67.1258 264.835 67.2715 264.857 67.4059 264.912C67.5746 265.033 67.7107 265.193 67.802 265.38C67.8934 265.566 67.9372 265.772 67.9294 265.98C68.0334 267.303 67.7664 268.629 67.1586 269.809C66.5507 270.989 65.626 271.976 64.4883 272.659" fill="#263238"/>
<path d="M66.3867 279.053C66.5722 277.22 67.2419 275.468 68.3272 273.979C68.5478 273.606 68.9064 273.335 69.3253 273.225C69.9744 273.141 70.491 273.804 70.6306 274.439C70.9237 275.745 70.2676 277.078 69.5138 278.188C68.7898 279.117 67.9474 279.948 67.0079 280.659" fill="#263238"/>
<path d="M68.1875 284.184C68.4727 282.739 69.0733 281.376 69.9465 280.191C70.1286 279.931 70.3672 279.717 70.6445 279.563C70.7852 279.488 70.9437 279.454 71.1025 279.464C71.2614 279.474 71.4144 279.527 71.5449 279.619C71.9497 279.933 71.859 280.561 71.6915 281.015C71.1479 282.668 70.0948 284.107 68.6831 285.126" fill="#263238"/>
<path d="M67.3847 282.117C65.7462 281.044 64.0125 280.123 62.2056 279.367C62.0747 279.286 61.9257 279.239 61.772 279.231C61.6184 279.222 61.4651 279.252 61.3261 279.318C61.2352 279.395 61.1689 279.497 61.1354 279.611C61.1019 279.725 61.1027 279.847 61.1376 279.961C61.2077 280.188 61.3295 280.396 61.4936 280.568C62.2903 281.462 63.2783 282.164 64.384 282.623C65.4898 283.083 66.6848 283.287 67.8803 283.22" fill="#263238"/>
<path d="M65.3814 275.34L61.1096 272.548C60.7185 272.262 60.2786 272.049 59.8113 271.92C59.5781 271.84 59.3256 271.835 59.0896 271.907C58.8537 271.979 58.6464 272.123 58.4973 272.32C58.3481 272.516 58.2646 272.754 58.2586 273.001C58.2527 273.247 58.3246 273.489 58.4642 273.693C58.7155 274.107 59.0537 274.462 59.4554 274.733C60.3465 275.468 61.3634 276.035 62.4568 276.408C62.9442 276.617 63.469 276.725 63.9993 276.725C64.5297 276.725 65.0545 276.617 65.5419 276.408" fill="#263238"/>
<path d="M63.413 267.613C62.2391 266.008 60.6619 264.741 58.8411 263.942C58.5439 263.788 58.2122 263.714 57.8779 263.725C57.5576 263.802 57.2737 263.987 57.0741 264.249C56.8745 264.511 56.7713 264.834 56.782 265.163C56.7911 265.536 56.8785 265.902 57.0384 266.239C57.1984 266.576 57.4273 266.875 57.7103 267.118C58.2752 267.598 58.9301 267.961 59.6368 268.186C60.9257 268.652 62.2804 268.911 63.6503 268.953" fill="#263238"/>
<path d="M62.4988 260.458C61.5146 258.364 59.8115 256.92 57.9409 255.572C57.543 255.293 57.0335 255.021 56.6007 255.237C56.4652 255.314 56.3508 255.423 56.2679 255.554C56.185 255.686 56.1363 255.836 56.1261 255.991C56.1145 256.301 56.1668 256.61 56.2796 256.899C56.7549 258.203 57.6045 259.338 58.722 260.161C59.8396 260.984 61.1753 261.459 62.5616 261.526" fill="#263238"/>
<path d="M62.2685 256.731C61.7727 255.652 61.38 254.528 61.0959 253.374C60.807 252.222 60.8506 251.012 61.2215 249.884C61.3785 249.397 61.6687 248.965 62.0591 248.635C62.2527 248.48 62.4817 248.377 62.7254 248.333C62.9691 248.289 63.2198 248.306 63.4551 248.383C63.6669 248.486 63.8533 248.634 64.0006 248.818C64.1478 249.001 64.2524 249.215 64.3067 249.444C64.4048 249.903 64.4237 250.375 64.3625 250.84C64.1671 253.074 63.49 255.691 62.2336 256.697" fill="#263238"/>
<path d="M94.2997 249.884C94.3217 250.018 94.3334 250.153 94.3346 250.289C94.3346 250.582 94.3346 250.987 94.3765 251.447C94.4184 251.908 94.3765 252.571 94.3765 253.283C94.3765 253.995 94.3765 254.819 94.3346 255.719C94.2788 257.527 94.1252 259.67 93.867 262.043C93.6087 264.416 93.169 267.013 92.6385 269.721C92.108 272.429 91.3821 274.956 90.6841 277.238C89.9861 279.521 89.2462 281.538 88.5901 283.213C88.269 284.058 87.934 284.805 87.6478 285.461C87.3616 286.117 87.1103 286.682 86.8939 287.136C86.6776 287.59 86.517 287.918 86.3844 288.183C86.3322 288.308 86.2667 288.428 86.189 288.539C86.2249 288.407 86.2716 288.279 86.3286 288.155C86.4472 287.883 86.5938 287.527 86.7823 287.087C86.9707 286.647 87.236 286.061 87.4803 285.398C87.7246 284.735 88.0736 284.002 88.3807 283.137C89.0298 281.461 89.7278 279.43 90.4258 277.155C91.1238 274.879 91.7799 272.345 92.3523 269.658C92.9247 266.971 93.3086 264.381 93.6017 262.022C93.8949 259.663 94.0484 257.52 94.1252 255.74C94.188 254.84 94.195 254.03 94.216 253.311C94.2369 252.592 94.216 251.978 94.216 251.475C94.216 250.973 94.216 250.61 94.216 250.317C94.2246 250.169 94.2528 250.024 94.2997 249.884Z" fill="#455A64"/>
<path d="M93.5877 262.958C93.5554 261.396 92.9832 259.894 91.9683 258.707C91.8189 258.49 91.6187 258.313 91.385 258.191C91.1514 258.069 90.8915 258.007 90.6281 258.009C89.9301 258.114 89.616 258.944 89.5951 259.649C89.5587 260.843 89.9526 262.009 90.7049 262.937C91.3519 263.83 92.325 264.432 93.4132 264.612" fill="#455A64"/>
<path d="M92.0523 271.48C92.1361 269.644 91.5498 266.818 90.4818 265.331C90.324 265.084 90.1173 264.873 89.8746 264.71C89.7526 264.631 89.6133 264.583 89.4687 264.569C89.3241 264.556 89.1783 264.578 89.044 264.633C88.8753 264.754 88.7392 264.915 88.6478 265.101C88.5565 265.287 88.5127 265.493 88.5205 265.701C88.4165 267.024 88.6835 268.35 89.2913 269.53C89.8992 270.71 90.8239 271.697 91.9616 272.381" fill="#455A64"/>
<path d="M90.0418 278.774C89.8564 276.94 89.1867 275.189 88.1014 273.699C87.8807 273.327 87.5221 273.056 87.1032 272.946C86.4541 272.862 85.9446 273.525 85.798 274.16C85.5048 275.465 86.1609 276.799 86.9148 277.908C87.6344 278.837 88.4721 279.668 89.4066 280.379" fill="#455A64"/>
<path d="M88.2619 283.904C87.9762 282.462 87.3782 281.099 86.5099 279.912C86.3278 279.652 86.0891 279.438 85.8119 279.284C85.671 279.21 85.5126 279.176 85.3539 279.186C85.1952 279.196 85.0422 279.249 84.9115 279.34C84.5066 279.654 84.5974 280.282 84.7649 280.736C85.3085 282.389 86.3616 283.828 87.7733 284.847" fill="#455A64"/>
<path d="M89.0649 281.839C90.7067 280.767 92.4425 279.846 94.2511 279.088C94.3806 279.008 94.5285 278.961 94.681 278.952C94.8336 278.944 94.9858 278.974 95.1236 279.04C95.2135 279.117 95.2796 279.219 95.3142 279.332C95.3488 279.446 95.3505 279.567 95.319 279.682C95.2434 279.907 95.1222 280.113 94.963 280.289C94.1646 281.183 93.1753 281.885 92.0685 282.344C90.9617 282.803 89.7658 283.007 88.5693 282.941" fill="#455A64"/>
<path d="M91.0679 275.061L95.3396 272.269C95.7307 271.982 96.1706 271.769 96.6379 271.64C96.8731 271.58 97.1206 271.584 97.3532 271.655C97.5859 271.725 97.7948 271.858 97.9571 272.038C98.0901 272.247 98.1607 272.489 98.1607 272.736C98.1607 272.984 98.0901 273.226 97.9571 273.434C97.7042 273.849 97.3664 274.206 96.966 274.481C96.0723 275.213 95.0561 275.78 93.9646 276.157C93.4767 276.364 92.9521 276.471 92.422 276.471C91.8919 276.471 91.3672 276.364 90.8794 276.157" fill="#455A64"/>
<path d="M93.0431 267.334C94.2127 265.727 95.788 264.46 97.608 263.662C97.9052 263.509 98.237 263.434 98.5713 263.446C98.8915 263.523 99.1754 263.708 99.3751 263.97C99.5747 264.232 99.6779 264.555 99.6671 264.884C99.6585 265.257 99.5713 265.623 99.4113 265.96C99.2514 266.297 99.0222 266.596 98.7388 266.838C98.1739 267.319 97.519 267.682 96.8123 267.906C95.5236 268.373 94.1689 268.632 92.7988 268.674" fill="#455A64"/>
<path d="M93.9505 260.179C94.9347 258.085 96.6378 256.641 98.5085 255.293C98.6836 255.124 98.9001 255.003 99.1364 254.943C99.3728 254.883 99.6207 254.886 99.8556 254.951C99.989 255.029 100.101 255.139 100.183 255.27C100.264 255.402 100.313 255.551 100.323 255.705C100.335 256.015 100.283 256.324 100.17 256.613C99.6945 257.917 98.8448 259.052 97.7273 259.875C96.6098 260.698 95.2741 261.173 93.8877 261.24" fill="#455A64"/>
<path d="M94.181 256.452C94.6752 255.381 95.0678 254.267 95.3536 253.123C95.6425 251.971 95.5989 250.761 95.228 249.633C95.071 249.146 94.7808 248.713 94.3904 248.383C94.1968 248.229 93.9678 248.125 93.7241 248.081C93.4804 248.037 93.2297 248.055 92.9944 248.132C92.7821 248.233 92.5949 248.38 92.4464 248.562C92.2979 248.744 92.1918 248.957 92.1359 249.186C92.0377 249.645 92.0189 250.117 92.08 250.582C92.2755 252.815 92.9525 255.468 94.2089 256.438" fill="#455A64"/>
<path d="M56.7192 288.498V293.858C56.7192 294.413 56.9399 294.946 57.3326 295.339C57.7253 295.732 58.2579 295.952 58.8132 295.952H95.6258C96.1811 295.952 96.7137 295.732 97.1064 295.339C97.4991 294.946 97.7198 294.413 97.7198 293.858V288.477L56.7192 288.498Z" fill="#274AA4"/>
<g opacity="0.4">
<path d="M59.9092 295.994L60.2163 297.704L94.188 300.126L95.0465 295.994H59.9092Z" fill="black"/>
</g>
<path d="M163.394 315.057L163.122 308.265L151.284 307.818L151.466 316.132L155.772 318.728L163.394 315.057Z" fill="#A1675B"/>
<path d="M151.207 314.582V315.363C151.207 315.363 138.064 320.787 137.945 323.293L164.141 322.909L163.66 314.198C161.733 315.15 159.624 315.677 157.475 315.744C155.327 315.81 153.189 315.414 151.207 314.582Z" fill="#274AA4"/>
<g opacity="0.6">
<path d="M161.056 317.018C161.31 317.091 161.527 317.256 161.666 317.48C161.806 317.704 161.857 317.972 161.81 318.232C161.745 318.487 161.586 318.708 161.364 318.849C161.142 318.99 160.875 319.042 160.617 318.993C160.349 318.915 160.12 318.74 159.973 318.503C159.826 318.266 159.772 317.983 159.821 317.709C159.914 317.448 160.106 317.233 160.355 317.111C160.603 316.988 160.89 316.967 161.154 317.053" fill="white"/>
</g>
<g opacity="0.6">
<path d="M164.148 322.909L164.037 320.815L138.964 321.953C138.964 321.953 137.806 322.476 137.952 323.3L164.148 322.909Z" fill="white"/>
</g>
<path d="M151.124 315.433C151.124 315.566 151.766 315.615 152.401 316.013C153.036 316.411 153.385 316.948 153.497 316.899C153.609 316.85 153.413 316.11 152.638 315.636C151.864 315.161 151.096 315.322 151.124 315.433Z" fill="#263238"/>
<path d="M148.388 316.613C148.388 316.739 148.918 316.948 149.365 317.479C149.812 318.009 149.937 318.588 150.063 318.581C150.189 318.574 150.258 317.849 149.693 317.185C149.128 316.522 148.395 316.494 148.388 316.613Z" fill="#263238"/>
<path d="M146.88 319.922C146.999 319.922 147.166 319.307 146.824 318.616C146.482 317.925 145.882 317.646 145.833 317.758C145.784 317.869 146.154 318.232 146.426 318.805C146.699 319.377 146.754 319.915 146.88 319.922Z" fill="#263238"/>
<path d="M162.382 299.952L164.455 320.173L173.725 318.63L173.934 298.723L162.382 299.952Z" fill="#A1675B"/>
<path d="M173.69 314.798C173.69 314.798 167.555 319.964 164.002 316.341L163.353 318.323L160.91 332.248C160.822 332.692 160.902 333.153 161.136 333.54C161.37 333.927 161.74 334.214 162.173 334.342C162.505 334.438 162.857 334.438 163.189 334.343C163.521 334.248 163.82 334.061 164.051 333.805C166.515 331.048 175.519 320.843 175.303 319.601L174.947 316.271C174.907 315.931 174.765 315.611 174.541 315.352C174.317 315.093 174.021 314.908 173.69 314.819V314.798Z" fill="#274AA4"/>
<g opacity="0.6">
<path d="M162.501 334.384L175.198 318.421L175.26 319.119C175.307 319.418 175.285 319.724 175.195 320.013C175.105 320.302 174.951 320.567 174.744 320.787C173.753 322.393 170.919 326.043 164.099 333.749C163.902 333.972 163.654 334.144 163.375 334.25C163.097 334.356 162.797 334.392 162.501 334.356V334.384Z" fill="white"/>
</g>
<g opacity="0.6">
<path d="M172.922 316.445C172.811 316.526 172.718 316.629 172.648 316.747C172.577 316.865 172.532 316.997 172.513 317.133C172.495 317.269 172.505 317.408 172.541 317.54C172.578 317.673 172.641 317.797 172.727 317.904C172.813 318.011 172.919 318.1 173.041 318.166C173.162 318.231 173.295 318.271 173.432 318.283C173.568 318.296 173.707 318.28 173.837 318.238C173.968 318.195 174.089 318.127 174.193 318.037C174.305 317.952 174.398 317.845 174.466 317.723C174.535 317.6 174.577 317.465 174.591 317.325C174.605 317.185 174.59 317.044 174.547 316.911C174.503 316.777 174.433 316.654 174.34 316.549C174.247 316.444 174.133 316.359 174.006 316.3C173.879 316.241 173.741 316.209 173.6 316.206C173.46 316.203 173.32 316.228 173.191 316.282C173.061 316.335 172.943 316.414 172.846 316.515" fill="white"/>
</g>
<path d="M165.852 326.511C165.375 326.011 164.809 325.604 164.183 325.31C163.503 325.117 162.793 325.053 162.089 325.122C162.089 325.08 162.278 324.926 162.69 324.829C163.227 324.723 163.783 324.769 164.295 324.961C164.804 325.142 165.249 325.47 165.572 325.903C165.838 326.238 165.893 326.49 165.852 326.511Z" fill="#263238"/>
<path d="M164.804 328.926C164.273 328.693 163.727 328.492 163.171 328.325C162.593 328.274 162.013 328.256 161.433 328.27C161.69 328.079 161.988 327.951 162.303 327.897C162.618 327.842 162.942 327.862 163.248 327.955C164.316 328.158 164.888 328.87 164.804 328.926Z" fill="#263238"/>
<path d="M167.918 323.349C167.13 322.923 166.311 322.559 165.468 322.26C164.586 322.08 163.693 321.961 162.794 321.904C163.697 321.58 164.684 321.58 165.586 321.904C166.511 322.092 167.338 322.605 167.918 323.349Z" fill="#263238"/>
<path d="M167.834 319.188C167.834 319.293 166.787 318.986 165.517 319.056C164.246 319.126 163.269 319.517 163.22 319.412C163.873 318.915 164.676 318.656 165.496 318.679C166.311 318.568 167.139 318.748 167.834 319.188Z" fill="#263238"/>
<path d="M164.791 319.091C164.742 318.875 164.742 318.651 164.791 318.435C164.912 317.843 165.149 317.28 165.489 316.78C165.704 316.385 166.046 316.073 166.459 315.894C166.6 315.848 166.752 315.845 166.895 315.886C167.038 315.927 167.166 316.01 167.261 316.124C167.429 316.356 167.502 316.643 167.464 316.927C167.359 317.506 167.057 318.031 166.609 318.413C166.162 318.794 165.595 319.009 165.007 319.021C164.42 319.038 163.84 318.88 163.343 318.567C162.846 318.253 162.453 317.799 162.215 317.262C162.155 317.131 162.124 316.988 162.124 316.843C162.124 316.699 162.155 316.556 162.215 316.424C162.3 316.301 162.42 316.207 162.559 316.153C162.699 316.099 162.851 316.089 162.997 316.124C163.422 316.255 163.805 316.495 164.107 316.822C164.546 317.235 164.909 317.722 165.181 318.26C165.298 318.449 165.372 318.661 165.398 318.881C164.999 318.193 164.5 317.567 163.918 317.025C163.644 316.755 163.309 316.556 162.941 316.445C162.862 316.424 162.779 316.428 162.702 316.457C162.626 316.486 162.56 316.538 162.515 316.606C162.478 316.693 162.458 316.787 162.458 316.882C162.458 316.976 162.478 317.07 162.515 317.157C162.734 317.612 163.078 317.995 163.507 318.26C163.937 318.526 164.432 318.664 164.937 318.658C165.433 318.64 165.909 318.457 166.289 318.137C166.669 317.816 166.93 317.378 167.031 316.892C167.061 316.695 167.018 316.495 166.912 316.327C166.862 316.261 166.793 316.214 166.713 316.191C166.634 316.169 166.55 316.172 166.473 316.201C166.131 316.346 165.839 316.589 165.635 316.899C165.224 317.573 164.938 318.315 164.791 319.091Z" fill="#263238"/>
<path d="M136.012 158.446C136.012 158.446 126.491 176.671 125.682 191.085C124.872 205.498 136.571 246.925 138.19 256.355C139.293 262.79 144.716 294.968 151.242 314.554H161.308C161.308 314.554 154.781 249.284 155.026 242.485C155.27 235.687 157.748 199.489 157.748 199.489L161.287 172.015L136.012 158.446Z" fill="#263238"/>
<path d="M187.957 165.489C187.14 165.761 158.774 170.654 158.774 170.654C158.774 170.654 149.113 245.124 148.304 254.917C147.494 264.71 161.314 314.526 161.314 314.526H175.198C175.198 314.526 174.925 281.616 172.748 271.557C170.57 261.499 170.57 259.042 171.931 252.788C173.292 246.534 186.017 216.492 189.549 199.936C193.08 183.379 187.957 165.489 187.957 165.489Z" fill="#263238"/>
<path d="M156.352 190.324C156.352 190.324 156.352 190.435 156.352 190.652C156.352 190.868 156.296 191.203 156.247 191.608C156.149 192.46 156.003 193.702 155.814 195.266C155.416 198.462 154.851 203.062 154.153 208.73C152.757 220.107 150.747 235.791 148.569 253.116C148.505 255.262 148.645 257.41 148.988 259.53C149.281 261.624 149.637 263.718 150.042 265.715C150.838 269.749 151.731 273.623 152.638 277.295C154.446 284.644 156.268 291.255 157.824 296.727C159.381 302.199 160.707 306.68 161.615 309.745C162.068 311.266 162.424 312.453 162.669 313.283C162.787 313.674 162.871 313.981 162.941 314.198C163.011 314.414 163.018 314.519 163.018 314.519C163.018 314.519 162.976 314.414 162.906 314.212C162.836 314.009 162.731 313.688 162.599 313.304C162.341 312.481 161.964 311.301 161.482 309.814C160.526 306.757 159.172 302.325 157.58 296.825C155.989 291.324 154.139 284.756 152.31 277.406C151.396 273.728 150.489 269.854 149.693 265.805C149.288 263.788 148.925 261.715 148.625 259.607C148.281 257.464 148.141 255.293 148.206 253.123C150.356 235.757 152.436 220.086 153.902 208.723C154.649 203.062 155.256 198.469 155.682 195.28L156.184 191.622C156.24 191.217 156.289 190.924 156.324 190.673C156.359 190.421 156.352 190.324 156.352 190.324Z" fill="#455A64"/>
<path d="M153.092 187.455C152.597 187.004 152.13 186.521 151.696 186.01C150.608 184.842 149.442 183.748 148.206 182.737C146.962 181.717 145.649 180.784 144.276 179.945C143.689 179.626 143.12 179.275 142.573 178.891C143.216 179.087 143.831 179.367 144.402 179.721C145.826 180.498 147.176 181.402 148.436 182.423C149.699 183.444 150.867 184.577 151.926 185.808C152.375 186.312 152.766 186.864 153.092 187.455Z" fill="#455A64"/>
<path d="M172.489 181.787C172.489 181.857 171.519 181.976 170.04 182.555C168.123 183.327 166.276 184.261 164.518 185.347C162.424 186.61 160.644 187.86 159.36 188.802C158.076 189.744 157.308 190.359 157.266 190.317C157.409 190.146 157.571 189.991 157.748 189.856C158.083 189.549 158.571 189.158 159.2 188.634C160.832 187.34 162.546 186.151 164.33 185.075C166.102 183.968 167.985 183.051 169.949 182.339C170.547 182.132 171.161 181.975 171.785 181.871C172.015 181.816 172.252 181.788 172.489 181.787Z" fill="#455A64"/>
<path d="M191.413 65.4586L195.412 64.6001L193.437 59.7979L190.352 61.3335L191.413 65.4586Z" fill="#274AA4"/>
<path d="M202.155 72.1177C203.146 72.013 205.645 73.2833 207.808 75.831L207.92 75.9427C209.428 77.6458 210.37 72.4108 210.468 70.4843C210.494 70.1847 210.587 69.8947 210.74 69.6357C210.892 69.3767 211.102 69.1553 211.351 68.9878C211.601 68.8204 211.885 68.7111 212.183 68.6681C212.481 68.6251 212.784 68.6494 213.071 68.7393L219.451 71.5872L220.728 73.0739C221.699 73.3601 221.713 72.9064 221.531 73.8696L219.514 83.8929L220.379 88.3113L209.791 89.0093V84.1233C208.25 82.9947 207.063 81.4498 206.371 79.67C206.371 79.6212 206.336 79.5793 206.315 79.5374C205.937 78.5778 205.393 77.6918 204.709 76.9199C203.962 76.0458 203.127 75.2506 202.218 74.5467C202.146 74.4996 202.071 74.4576 201.994 74.4211C201.849 74.3488 201.718 74.2493 201.61 74.1279C201.432 73.9926 201.299 73.8072 201.226 73.5955C201.154 73.3837 201.147 73.1553 201.206 72.9395C201.264 72.7236 201.386 72.5301 201.555 72.3837C201.724 72.2373 201.933 72.1446 202.155 72.1177Z" fill="#A1675B"/>
<path d="M207.927 48.4693C207.927 48.4693 214.761 47.6248 225.035 39.4512C235.31 31.2776 240.873 19.6629 242.025 19.8304C243.176 19.9979 248.425 18.1343 256.04 39.87C263.656 61.6057 259.426 66.0869 257.527 65.8705C255.629 65.6541 243.023 60.8239 234.849 60.9845C226.676 61.145 215.891 64.3768 215.891 64.3768L207.927 48.4693Z" fill="#274AA4"/>
<path d="M192.648 58.4858L194.525 63.0437L195.363 65.0889C195.919 66.4373 196.97 67.5213 198.301 68.1174C199.632 68.7135 201.142 68.7762 202.517 68.2927L217.343 64.6491L211.759 46.0684L195.705 51.066C194.319 51.649 193.22 52.7562 192.648 54.1461C192.075 55.536 192.075 57.0959 192.648 58.4858Z" fill="#263238"/>
<path d="M198.469 65.2216L203.432 74.0303L205.701 73.3323L221.196 84.8982L225.042 76.5222C225.042 76.5222 216.031 73.081 214.258 69.9889C212.485 66.8968 214.356 66.101 214.356 66.101L209.986 61.5361L198.469 65.2216Z" fill="#263238"/>
<path d="M255.23 40.177C259.265 51.9453 260.437 62.1989 257.855 63.0854C255.272 63.9719 249.884 55.1422 245.87 43.3878C241.857 31.6335 240.663 21.359 243.246 20.4725C245.828 19.586 251.196 28.4088 255.23 40.177Z" fill="#263238"/>
<path d="M245.075 36.6872C245.075 36.6872 251.238 33.623 253.681 41.7896C256.124 49.9562 249.884 50.6681 249.884 50.6681C247.631 46.2575 246.012 41.5507 245.075 36.6872Z" fill="#274AA4"/>
<path d="M239.77 26.7334C239.755 27.2421 239.783 27.751 239.853 28.255C239.951 29.2322 240.077 30.6562 240.286 32.4012L240.831 35.1932C240.935 35.7027 241.033 36.2262 241.138 36.7706C241.194 37.0359 241.249 37.3151 241.305 37.5943C241.361 37.8735 241.452 38.1457 241.529 38.4249C241.85 39.5417 242.178 40.7213 242.527 41.9149C242.611 42.215 242.701 42.5222 242.785 42.8363C242.869 43.1504 243.008 43.4435 243.113 43.7506L243.811 45.6143L244.509 47.4849C244.628 47.7851 244.726 48.0992 244.865 48.3854C245.005 48.6715 245.137 48.9717 245.277 49.2579L246.833 52.5664C246.959 52.8246 247.071 53.0899 247.21 53.3412L247.629 54.0392L248.432 55.4352L249.884 58.0178C250.868 59.4696 251.699 60.6213 252.271 61.417C252.549 61.8444 252.862 62.2483 253.206 62.6246C252.989 62.1641 252.73 61.7248 252.431 61.3123C251.887 60.4608 251.119 59.2742 250.177 57.8223L248.781 55.3165L248.006 53.9205C247.867 53.6832 247.734 53.4389 247.594 53.2225C247.455 53.0061 247.357 52.706 247.231 52.4477C246.75 51.3937 246.24 50.2909 245.71 49.1532L245.312 48.2876C245.172 47.9945 245.075 47.6874 244.956 47.3872C244.733 46.773 244.502 46.1587 244.258 45.5305C244.014 44.9023 243.79 44.2881 243.56 43.6808C243.448 43.3737 243.316 43.0806 243.232 42.7734C243.148 42.4663 243.05 42.1592 242.967 41.8591C242.611 40.6515 242.269 39.4859 241.947 38.3691C241.871 38.0899 241.78 37.8246 241.717 37.5454C241.654 37.2662 241.598 37.001 241.543 36.7288L241.215 35.1722C240.998 34.1671 240.796 33.2318 240.614 32.3802C240.363 30.6631 240.168 29.2671 240.021 28.269C239.983 27.7506 239.899 27.2367 239.77 26.7334Z" fill="#263238"/>
<path d="M215.186 66.6382C215.527 66.7703 215.808 67.0234 215.974 67.3492C216.14 67.675 216.18 68.0506 216.087 68.4041C215.689 69.842 215.04 72.0896 214.537 73.4646C214.4 73.9135 214.18 74.3326 213.888 74.7001C213.744 74.8795 213.553 75.015 213.336 75.0915C213.119 75.168 212.884 75.1823 212.66 75.1329C212.431 75.0389 212.232 74.8836 212.086 74.6841C211.939 74.4847 211.85 74.2487 211.829 74.0021C211.791 73.5027 211.847 73.0005 211.997 72.5223C212.325 71.1822 212.918 69.1719 213.393 67.5386C213.447 67.362 213.535 67.1979 213.653 67.0558C213.771 66.9137 213.916 66.7963 214.08 66.7106C214.243 66.625 214.422 66.5726 214.606 66.5565C214.79 66.5405 214.976 66.5611 215.152 66.6173L215.186 66.6382Z" fill="#A1675B"/>
<path d="M217.322 69.1021C217.668 69.2345 217.951 69.491 218.118 69.8214C218.284 70.1519 218.322 70.5325 218.223 70.889C217.825 72.3269 217.176 74.5814 216.673 75.9495C216.536 76.4006 216.316 76.822 216.024 77.1919C215.878 77.3694 215.687 77.5032 215.47 77.5783C215.253 77.6535 215.02 77.6671 214.795 77.6177C214.566 77.5251 214.366 77.3702 214.219 77.1704C214.073 76.9707 213.984 76.734 213.965 76.487C213.926 75.9875 213.983 75.4854 214.132 75.0072C214.46 73.667 215.047 71.6568 215.563 70.0235C215.617 69.8469 215.706 69.6828 215.824 69.5406C215.942 69.3985 216.087 69.2812 216.25 69.1955C216.414 69.1098 216.593 69.0574 216.777 69.0414C216.961 69.0254 217.146 69.046 217.322 69.1021Z" fill="#A1675B"/>
<path d="M219.318 70.5888C219.626 70.6913 219.883 70.9093 220.034 71.1969C220.185 71.4845 220.219 71.8194 220.128 72.1313C219.765 73.3807 219.179 75.3282 218.732 76.5218C218.602 76.9134 218.401 77.2778 218.139 77.5967C218.01 77.7706 217.83 77.8997 217.624 77.966C217.419 78.0322 217.197 78.0322 216.991 77.9659C216.785 77.8996 216.606 77.7704 216.477 77.5964C216.349 77.4225 216.278 77.2126 216.275 76.9964C216.246 76.5625 216.298 76.1269 216.429 75.7121C216.736 74.5534 217.273 72.8084 217.741 71.3915C217.792 71.2339 217.874 71.0882 217.982 70.9625C218.09 70.8368 218.222 70.7336 218.37 70.659C218.517 70.5844 218.679 70.5398 218.844 70.5277C219.009 70.5157 219.175 70.5364 219.332 70.5888H219.318Z" fill="#A1675B"/>
<path d="M221.838 70.9659C222.15 71.0687 222.41 71.2882 222.563 71.5783C222.717 71.8685 222.752 72.2069 222.662 72.5225C222.292 73.7719 221.705 75.7333 221.266 76.9269C221.141 77.3231 220.94 77.6908 220.672 78.0088C220.542 78.1817 220.361 78.3097 220.155 78.3749C219.948 78.4401 219.726 78.4392 219.52 78.3723C219.314 78.3055 219.135 78.176 219.006 78.0019C218.877 77.8279 218.806 77.618 218.802 77.4015C218.77 76.9652 218.822 76.5268 218.955 76.1102C219.262 74.9445 219.807 73.1995 220.274 71.7686C220.327 71.6109 220.409 71.4649 220.518 71.3392C220.626 71.2134 220.759 71.1103 220.907 71.0357C221.056 70.9612 221.217 70.9166 221.383 70.9047C221.549 70.8927 221.715 70.9135 221.873 70.9659H221.838Z" fill="#A1675B"/>
<path d="M214.021 74.7701C214.16 74.819 214.663 73.6743 215.158 72.2294C215.654 70.7846 215.933 69.5631 215.801 69.5142C215.668 69.4653 215.151 70.6101 214.663 72.0619C214.174 73.5137 213.888 74.7213 214.021 74.7701Z" fill="#925249"/>
<path d="M216.303 76.7803C216.443 76.8222 217.001 75.5099 217.511 73.8487C218.02 72.1875 218.348 70.8124 218.209 70.7635C218.069 70.7147 217.511 72.0269 217.008 73.6881C216.505 75.3494 216.17 76.7245 216.303 76.7803Z" fill="#925249"/>
<path d="M218.55 76.8921C218.676 76.9479 219.297 75.8381 219.793 74.3583C220.288 72.8786 220.491 71.6222 220.337 71.5663C220.184 71.5105 219.793 72.711 219.297 74.1629C218.802 75.6147 218.418 76.8362 218.55 76.8921Z" fill="#925249"/>
<path d="M208.646 53.1807C206.786 53.9429 204.885 54.5977 202.95 55.142C201.05 55.7865 199.113 56.3156 197.15 56.7265C199.007 55.9664 200.909 55.3207 202.846 54.793C204.745 54.1392 206.682 53.6007 208.646 53.1807Z" fill="#455A64"/>
<path d="M209.253 55.2261C207.393 55.9788 205.492 56.6244 203.558 57.1595C201.658 57.804 199.721 58.3331 197.757 58.744C199.614 57.9825 201.516 57.3368 203.453 56.8105C205.352 56.1642 207.289 55.635 209.253 55.2261Z" fill="#455A64"/>
<path d="M209.853 57.271C207.993 58.0237 206.092 58.6693 204.158 59.2045C202.259 59.8508 200.321 60.38 198.357 60.7889C200.215 60.0288 202.117 59.3831 204.053 58.8555C205.953 58.211 207.89 57.6819 209.853 57.271Z" fill="#455A64"/>
<path d="M210.461 59.3301C208.601 60.0828 206.699 60.7284 204.765 61.2635C202.865 61.8985 200.928 62.4183 198.965 62.8201C200.822 62.0599 202.724 61.4142 204.661 60.8866C206.561 60.2516 208.498 59.7318 210.461 59.3301Z" fill="#455A64"/>
<path d="M217.322 64.6488C217.114 64.7449 216.897 64.8175 216.673 64.8652L214.872 65.3329L208.918 66.7289L202.95 68.1249C202.133 68.3475 201.303 68.52 200.465 68.6414C200.663 68.5271 200.877 68.4446 201.1 68.3971C201.519 68.2575 202.134 68.083 202.887 67.8806C204.402 67.4618 206.503 66.9383 208.834 66.3938C211.166 65.8494 213.281 65.3817 214.816 65.0676C215.584 64.9071 216.212 64.7884 216.638 64.7117C216.861 64.6548 217.092 64.6336 217.322 64.6488Z" fill="#455A64"/>
<path d="M141.107 87.4038C138.315 88.1856 132.389 91.0892 129.702 97.1758C128.725 99.3954 124.6 128.697 124.6 128.697L137.862 141.261L140.172 113.286L141.107 87.4038Z" fill="#455A64"/>
<path d="M133.381 104.833C133.485 104.833 134.986 113.139 136.745 123.421C138.504 133.702 139.851 142.05 139.753 142.064C139.656 142.078 138.148 133.765 136.389 123.484C134.63 113.202 133.318 104.854 133.381 104.833Z" fill="#263238"/>
<path d="M187.95 99.2349C187.963 99.3742 187.963 99.5143 187.95 99.6537C187.95 99.9608 187.895 100.352 187.853 100.84C187.748 101.915 187.608 103.395 187.434 105.196C187.036 108.916 186.499 113.977 185.905 119.568C185.312 125.159 184.698 130.205 184.272 133.925C184.056 135.726 183.874 137.199 183.742 138.274C183.672 138.749 183.616 139.14 183.574 139.454C183.563 139.592 183.535 139.728 183.49 139.858C183.478 139.721 183.478 139.584 183.49 139.447C183.49 139.133 183.546 138.749 183.581 138.26C183.686 137.178 183.832 135.705 184.007 133.898C184.398 130.177 184.935 125.117 185.535 119.526C186.136 113.935 186.743 108.888 187.162 105.168L187.699 100.819C187.769 100.345 187.825 99.9538 187.867 99.6397C187.878 99.5018 187.906 99.3658 187.95 99.2349Z" fill="#263238"/>
<path d="M135.153 140.843C135.105 140.843 134.749 139.852 134.134 138.246C133.401 136.143 132.343 134.167 131 132.39C130.079 131.111 128.834 130.1 127.392 129.461C125.951 128.822 124.366 128.578 122.799 128.753C123.019 128.653 123.255 128.592 123.497 128.572C124.193 128.471 124.9 128.488 125.591 128.621C127.846 129.099 129.862 130.354 131.287 132.167C132.656 133.972 133.702 136 134.379 138.163C134.658 138.979 134.86 139.649 134.986 140.11C135.076 140.345 135.132 140.592 135.153 140.843Z" fill="#263238"/>
<path d="M177.99 87.4245L185.933 89.2673C186.993 89.5099 187.978 90.0083 188.802 90.7191C195.586 96.5195 209.19 107.918 209.19 107.918L208.36 87.5362L220.679 86.231C220.679 86.231 225.852 113.125 225.412 120.349C224.902 128.725 217.385 130.819 206.433 126.282C199.682 123.566 193.149 120.339 186.889 116.629L177.99 87.4245Z" fill="#455A64"/>
<path d="M183.532 139.921C183.532 139.921 187.678 164.623 188.418 168.183C188.976 175.673 134.595 171.61 132.71 165.489L139.663 143.09L134.714 113.963C134.26 103.199 140.612 87.5013 140.612 87.5013L151.082 85.4492L166.536 86.587L179.246 87.7456L187.887 102.843L183.532 139.921Z" fill="#455A64"/>
<path d="M138.204 133.235C138.057 131.943 137.841 130.561 136.912 129.647C135.984 128.733 134.12 130.157 132.662 130.094C127.957 129.884 123.434 128.035 118.702 127.825L114.514 132.174C116.105 135.896 117.694 139.607 119.281 143.307C120.677 146.553 122.345 150.091 125.598 151.466C128.355 152.639 131.698 151.85 133.974 149.931C136.227 147.913 137.707 145.173 138.162 142.183C138.616 139.219 138.63 136.203 138.204 133.235Z" fill="#455A64"/>
<path d="M214.83 120.454C214.667 120.363 214.519 120.248 214.39 120.112C214.009 119.772 213.652 119.406 213.322 119.016C211.114 116.463 209.734 113.298 209.365 109.942C209.309 109.437 209.286 108.929 209.295 108.421C209.282 108.233 209.298 108.045 209.344 107.862C209.407 107.862 209.428 108.651 209.623 109.907C210.114 113.19 211.46 116.286 213.525 118.884C214.286 119.854 214.872 120.405 214.83 120.454Z" fill="#263238"/>
<path d="M192.648 81.8967C192.746 81.2894 193.346 80.9055 193.807 80.5007C194.668 79.7997 195.32 78.8751 195.691 77.8284C196.062 76.7816 196.137 75.653 195.909 74.566C195.682 73.4791 195.159 72.4758 194.399 71.666C193.639 70.8562 192.671 70.2711 191.601 69.9749C191.062 69.8898 190.544 69.7051 190.072 69.4304C188.976 68.6347 189.228 66.9525 188.767 65.6822C187.783 62.9879 183.846 62.6459 182.324 60.2168C181.396 58.7301 181.585 56.8455 181.578 55.0935C181.571 53.3415 181.138 51.3173 179.574 50.5216C178.737 50.0958 177.718 50.1168 176.894 49.6561C175.198 48.7068 175.156 46.3476 174.458 44.5328C173.864 43.1171 172.799 41.9507 171.442 41.2318C170.086 40.5128 168.522 40.2857 167.017 40.5891C167.017 40.5891 168.085 37.8948 164.847 36.7082C160.938 35.3122 160.833 38.0414 158.983 36.422C157.972 35.5828 156.704 35.1131 155.39 35.0902C154.075 35.0674 152.792 35.4928 151.752 36.2964C151.171 36.8654 150.551 37.3925 149.895 37.8738C148.992 38.2918 148.037 38.5853 147.055 38.7463C145.233 39.295 143.644 40.4288 142.532 41.972C141.421 43.5152 140.849 45.3818 140.905 47.2829L167.171 88.2555C168.211 92.2271 173.237 95.4868 176.775 97.5598C177.502 98.0283 178.317 98.342 179.17 98.4812C180.251 98.5627 181.333 98.3197 182.276 97.7832C184.382 96.7119 185.987 94.8613 186.75 92.625C187.931 93.0818 189.229 93.1411 190.446 92.7938C191.664 92.4466 192.735 91.7117 193.498 90.7006C194.26 89.6896 194.672 88.4575 194.671 87.1912C194.67 85.9249 194.256 84.6935 193.492 83.6836C193.074 83.1601 192.529 82.5738 192.648 81.8967Z" fill="#263238"/>
<path d="M141.694 53.5716L141.219 50.6958L158.048 44.8745C163.304 43.5344 169.858 48.0365 170.975 53.3482C172.224 59.2394 173.509 66.4916 173.453 71.0356C173.341 80.1724 166.661 82.3083 166.661 82.3083L167.918 91.1798L148.206 94.3139L141.694 53.5716Z" fill="#A1675B"/>
<path d="M168.434 61.6687C168.482 61.9641 168.413 62.2664 168.243 62.5123C168.072 62.7582 167.813 62.9286 167.52 62.9879C167.374 63.0238 167.222 63.0296 167.074 63.0051C166.926 62.9806 166.784 62.9262 166.658 62.8453C166.531 62.7644 166.422 62.6586 166.338 62.5343C166.253 62.4101 166.195 62.2699 166.166 62.1224C166.121 61.8243 166.193 61.5202 166.368 61.2742C166.542 61.0283 166.805 60.8594 167.101 60.8032C167.246 60.7705 167.395 60.7671 167.541 60.7932C167.687 60.8192 167.826 60.8742 167.95 60.9548C168.075 61.0355 168.181 61.1402 168.265 61.2628C168.348 61.3854 168.405 61.5234 168.434 61.6687Z" fill="#263238"/>
<path d="M169.614 57.4176C169.495 57.5852 168.532 57.0686 167.304 57.2501C166.075 57.4316 165.258 58.1854 165.105 58.0528C164.951 57.9202 165.105 57.7038 165.482 57.3548C165.961 56.9107 166.565 56.6255 167.213 56.5382C167.854 56.4394 168.51 56.5495 169.083 56.8523C169.502 57.0826 169.67 57.3409 169.614 57.4176Z" fill="#263238"/>
<path d="M157.287 62.8204C157.322 63.1123 157.245 63.4066 157.071 63.6437C156.898 63.8809 156.64 64.0432 156.352 64.0978C156.208 64.1305 156.058 64.1342 155.913 64.1086C155.768 64.083 155.629 64.0286 155.505 63.9487C155.38 63.8687 155.273 63.7648 155.19 63.6429C155.106 63.5211 155.048 63.3839 155.018 63.2392C154.972 62.9408 155.043 62.6359 155.218 62.3895C155.393 62.143 155.657 61.9746 155.954 61.92C156.101 61.8876 156.253 61.8855 156.4 61.9137C156.548 61.942 156.689 61.9999 156.814 62.0842C156.938 62.1684 157.044 62.2771 157.126 62.4036C157.207 62.5302 157.262 62.672 157.287 62.8204Z" fill="#263238"/>
<path d="M157.531 59.4138C157.406 59.5813 156.45 59.0718 155.214 59.2533C153.979 59.4347 153.169 60.1816 153.015 60.056C152.862 59.9303 153.015 59.707 153.399 59.358C153.877 58.9113 154.482 58.6236 155.13 58.5343C155.771 58.4419 156.425 58.5517 157.001 58.8484C157.42 59.0857 157.587 59.33 157.531 59.4138Z" fill="#263238"/>
<path d="M163.332 67.9015C163.95 67.6003 164.605 67.3798 165.279 67.2454C165.586 67.1686 165.88 67.0639 165.901 66.8406C165.881 66.5114 165.759 66.1967 165.552 65.9401L164.274 63.6786C162.48 60.4539 161.133 57.7875 161.266 57.7177C161.398 57.6479 162.955 60.1956 164.756 63.4204C165.196 64.2161 165.607 64.9769 166.005 65.7028C166.256 66.0534 166.377 66.4804 166.347 66.9104C166.318 67.0289 166.262 67.1392 166.184 67.2325C166.105 67.3257 166.006 67.3994 165.894 67.4478C165.726 67.5208 165.55 67.5724 165.37 67.6014C164.707 67.789 164.021 67.8899 163.332 67.9015Z" fill="#263238"/>
<path d="M166.627 82.3643C162.335 83.0645 157.933 82.5819 153.895 80.9683C153.895 80.9683 157.825 86.7756 166.948 84.6048L166.627 82.3643Z" fill="#925249"/>
<path d="M160.693 70.2678C160.205 70.5121 160.358 70.875 160.093 71.3567C159.959 71.5859 159.899 71.8506 159.92 72.1152C159.941 72.3798 160.043 72.6315 160.212 72.8364C160.755 73.3167 161.463 73.567 162.187 73.5344C163.213 73.3948 163.318 72.634 163.527 71.9151L163.73 71.0286C162.857 70.8332 161.07 70.0793 160.693 70.2678Z" fill="#925249"/>
<path d="M157.141 54.5422C157.071 54.8912 155.814 54.9121 154.397 55.296C152.981 55.6799 151.864 56.2523 151.605 55.994C151.501 55.8614 151.654 55.5124 152.08 55.1215C152.648 54.6257 153.325 54.2716 154.055 54.0885C154.782 53.8888 155.546 53.8672 156.282 54.0257C156.868 54.1513 157.169 54.3746 157.141 54.5422Z" fill="#263238"/>
<path d="M168.637 53.9138C168.462 54.2279 167.569 54.0604 166.543 54.193C165.517 54.3256 164.686 54.6606 164.449 54.3954C164.344 54.2628 164.449 53.9626 164.777 53.6485C165.237 53.2545 165.804 53.0068 166.406 52.9372C167.008 52.8675 167.617 52.9791 168.155 53.2577C168.553 53.495 168.713 53.7463 168.637 53.9138Z" fill="#263238"/>
<path d="M170.361 46.8917C168.082 44.3995 165.035 42.741 161.705 42.1802L147.327 45.2444L143.557 47.9736C143.208 47.0801 142.985 46.5287 142.985 46.5287C141.526 45.6004 137.597 43.7367 134.609 47.492C133.52 48.8321 132.808 52.2244 132.927 53.9485C132.976 54.6046 133.101 55.3933 132.592 55.7912C132.401 55.9198 132.188 56.0121 131.964 56.0634C130.17 56.6935 128.68 57.9797 127.796 59.6631C126.912 61.3465 126.697 63.3024 127.196 65.1374C127.286 65.3714 127.334 65.6196 127.336 65.8703C127.251 66.2578 127.054 66.612 126.771 66.8894C125.986 67.9139 125.528 69.1502 125.455 70.4382C125.381 71.7263 125.696 73.0067 126.359 74.1137C126.854 74.7352 127.249 75.4299 127.531 76.1728C127.873 77.5688 126.959 78.888 126.268 80.1304C124.174 83.8508 124.125 89.009 127.182 91.9964C127.922 92.6944 128.858 93.3366 129.193 94.3138C129.325 94.8032 129.396 95.3075 129.402 95.8145C129.604 98.3762 131.196 101.119 133.744 101.447C135.14 101.629 136.808 101.091 137.883 102.027C138.3 102.488 138.644 103.01 138.902 103.576C139.527 104.594 140.494 105.357 141.63 105.729C142.765 106.1 143.996 106.056 145.102 105.604C146.208 105.152 147.118 104.321 147.669 103.261C148.219 102.2 148.375 100.979 148.108 99.814C149.424 99.1719 150.509 98.1396 151.216 96.858C151.923 95.5763 152.218 94.1077 152.059 92.6526C152.059 92.6526 150.154 83.76 150.768 81.2752C151.382 78.7903 149.302 73.7298 148.164 71.2938C147.027 68.8577 147.627 62.9178 147.676 60.5585C147.639 59.8873 147.517 59.2235 147.313 58.5832C147.166 58.0248 146.978 57.4036 146.761 56.7335C146.659 56.1139 146.59 55.4896 146.552 54.8628C146.52 54.346 146.61 53.8289 146.813 53.3526C147.016 52.8764 147.328 52.4541 147.723 52.1193C148.118 51.7846 148.586 51.5466 149.089 51.4243C149.592 51.3019 150.117 51.2987 150.621 51.4147C151.728 51.684 152.89 51.6014 153.948 51.1785C155.005 50.7556 155.904 50.0135 156.519 49.0555C157.612 50.0085 158.941 50.6495 160.367 50.9111C161.793 51.1727 163.263 51.0453 164.623 50.5422C165.815 52.0692 167.204 53.4306 168.755 54.5906C169.531 55.1713 170.414 55.5934 171.353 55.833C172.292 56.0725 173.268 56.1247 174.228 55.9866C173.993 52.6075 172.632 49.4048 170.361 46.8917Z" fill="#263238"/>
<path d="M169.07 49.6208C169.07 49.6208 169.07 49.2928 168.958 48.7134C168.816 47.8839 168.494 47.0954 168.016 46.4031C167.302 45.3589 166.245 44.5981 165.028 44.2532C164.274 44.0451 163.485 43.9966 162.711 44.1108C161.937 44.225 161.195 44.4993 160.533 44.9163L160.435 44.9861L160.352 44.8954C159.737 44.2707 159.031 43.7434 158.258 43.3319C156.561 42.4622 154.62 42.1916 152.75 42.5641C151.232 42.894 149.836 43.6437 148.723 44.7279C147.967 45.4595 147.348 46.3198 146.894 47.2686C146.58 47.9666 146.475 48.3435 146.447 48.3365C146.419 48.3295 146.447 48.2318 146.51 48.0434C146.582 47.7621 146.675 47.4868 146.789 47.2197C147.318 45.993 148.127 44.9081 149.153 44.0531C150.179 43.1981 151.393 42.5971 152.694 42.2988C154.096 42.0096 155.548 42.0752 156.918 42.4896C158.289 42.9041 159.533 43.6542 160.54 44.672H160.352C161.045 44.2289 161.825 43.9376 162.64 43.8173C163.454 43.697 164.285 43.7504 165.077 43.974C166.344 44.3411 167.435 45.1544 168.148 46.2635C168.628 46.9838 168.934 47.8058 169.042 48.6646C169.065 48.8967 169.065 49.1305 169.042 49.3626C169.062 49.4471 169.071 49.5339 169.07 49.6208Z" fill="#455A64"/>
<path d="M128.097 65.2423C129.268 65.0977 130.425 64.8477 131.552 64.4955C134.252 63.5878 136.605 61.8664 138.287 59.5676C138.385 59.421 138.49 59.2814 138.581 59.1488L138.623 59.0929H138.685C140.17 58.9045 141.568 58.2913 142.713 57.327C143.649 56.5497 144.408 55.5811 144.939 54.4861C145.409 53.4681 145.688 52.3728 145.763 51.2544C145.763 51.2544 145.763 51.3382 145.763 51.4917C145.777 51.7242 145.777 51.9572 145.763 52.1897C145.685 53.0212 145.465 53.8332 145.114 54.5908C144.6 55.7318 143.837 56.7431 142.88 57.5504C141.699 58.5707 140.241 59.2169 138.692 59.407L138.797 59.3442L138.504 59.763C137.57 61.0548 136.411 62.1684 135.084 63.0506C134.007 63.7737 132.831 64.3379 131.594 64.7258C130.761 64.9908 129.902 65.164 129.032 65.2423C128.732 65.2423 128.488 65.2423 128.334 65.2423C128.255 65.2525 128.175 65.2525 128.097 65.2423Z" fill="#455A64"/>
<path d="M183.127 87.0547H122.966C121.162 87.0547 119.7 88.5172 119.7 90.3213V146.461C119.7 148.266 121.162 149.728 122.966 149.728H183.127C184.931 149.728 186.394 148.266 186.394 146.461V90.3213C186.394 88.5172 184.931 87.0547 183.127 87.0547Z" fill="white"/>
<path d="M183.12 149.728C183.12 149.728 183.343 149.728 183.769 149.645C184.391 149.51 184.961 149.197 185.409 148.744C185.773 148.369 186.047 147.917 186.213 147.422C186.378 146.927 186.43 146.401 186.366 145.882C186.366 144.654 186.366 143.23 186.366 141.632C186.366 135.217 186.366 125.955 186.31 114.507C186.31 108.777 186.31 102.509 186.31 95.773C186.31 94.0909 186.31 92.3808 186.31 90.6427C186.386 89.7947 186.122 88.9511 185.577 88.2975C185.301 87.9748 184.963 87.7113 184.583 87.523C184.202 87.3346 183.788 87.2253 183.364 87.2016H172.231H122.973C122.458 87.1991 121.951 87.3256 121.497 87.5694C121.044 87.8132 120.659 88.1667 120.377 88.5976C120.094 89.0275 119.926 89.5224 119.888 90.0355C119.888 90.545 119.888 91.1104 119.888 91.6409V98.0695C119.888 102.327 119.888 106.515 119.888 110.633C119.888 118.87 119.888 126.82 119.888 134.365C119.888 138.158 119.888 141.848 119.888 145.436C119.888 145.875 119.888 146.343 119.888 146.755C119.964 147.383 120.23 147.973 120.65 148.446C121.071 148.918 121.626 149.251 122.24 149.4C122.654 149.484 123.076 149.515 123.497 149.491H127.329H146.063L173.18 149.547L180.558 149.582H173.18L146.063 149.645H127.329H123.497C123.05 149.671 122.602 149.638 122.164 149.547C121.716 149.438 121.296 149.241 120.926 148.966C120.557 148.691 120.247 148.345 120.014 147.949C119.781 147.545 119.631 147.099 119.574 146.636C119.525 146.162 119.574 145.729 119.574 145.282C119.574 141.694 119.574 138.004 119.574 134.212C119.574 126.646 119.574 118.695 119.574 110.48V91.6967C119.574 91.1523 119.574 90.6288 119.574 90.0634C119.617 89.4886 119.804 88.934 120.118 88.451C120.434 87.9687 120.865 87.5721 121.372 87.2968C121.878 87.0216 122.445 86.8761 123.022 86.8735H172.28H183.35C183.818 86.8993 184.275 87.0203 184.694 87.2291C185.113 87.438 185.484 87.7303 185.786 88.0881C186.376 88.8002 186.667 89.7137 186.596 90.6358C186.596 92.3761 186.596 94.0862 186.596 95.7661C186.596 102.502 186.596 108.77 186.596 114.5C186.596 125.948 186.554 135.21 186.54 141.625C186.54 143.223 186.54 144.647 186.54 145.875C186.54 146.183 186.54 146.483 186.54 146.769C186.51 147.044 186.444 147.314 186.345 147.572C186.183 148.023 185.92 148.431 185.577 148.765C185.116 149.222 184.531 149.533 183.895 149.659C183.641 149.721 183.38 149.744 183.12 149.728Z" fill="#263238"/>
<path d="M123.043 129.905C123.043 129.905 120.44 130.889 119.749 131.88L119.553 138.819C118.66 138.658 116.224 136.641 114.807 135.796C114.411 135.591 114.065 135.301 113.792 134.948C113.52 134.595 113.328 134.186 113.229 133.751C112.755 133.549 112.377 133.171 112.175 132.697C111.904 131.973 111.867 131.182 112.071 130.436C111.604 129.916 111.245 129.309 111.017 128.649C110.598 127.49 112.28 125.752 112.28 125.752C112.249 125.262 112.249 124.77 112.28 124.279C112.773 122.686 113.443 121.152 114.276 119.707C114.646 119.288 118.066 118.395 120.482 118.395C122.897 118.395 122.638 120.335 122.638 120.335C122.619 120.541 122.557 120.741 122.458 120.922C122.358 121.104 122.222 121.263 122.059 121.389L123.218 121.229C125.954 121.075 125.109 123.49 125.109 123.49C128.536 124.691 125.214 126.75 125.27 126.911C125.27 126.911 125.479 127.211 125.27 128.09C125.06 128.97 123.036 130.135 123.036 130.135" fill="#A1675B"/>
<path d="M122.896 121.403C122.896 121.459 122.296 121.536 121.361 121.808C120.115 122.128 118.845 122.343 117.564 122.45C117.205 122.49 116.848 122.55 116.496 122.632C116.343 122.669 116.193 122.721 116.049 122.785C115.916 122.841 115.805 122.946 115.637 123.037C115.508 123.094 115.395 123.183 115.309 123.295C115.205 123.414 115.093 123.511 114.995 123.616C114.793 123.797 114.604 123.986 114.409 124.167C114.132 124.444 113.841 124.705 113.536 124.949C113.327 125.117 113.236 125.235 113.201 125.221C113.166 125.207 113.201 125.04 113.411 124.823L114.164 123.944L114.716 123.344C114.814 123.239 114.918 123.134 115.009 123.016C115.119 122.873 115.256 122.754 115.414 122.667C115.533 122.604 115.665 122.471 115.847 122.387C116.019 122.306 116.199 122.24 116.384 122.192C116.742 122.102 117.106 122.037 117.473 121.997C119.037 121.801 120.265 121.71 121.277 121.487C121.801 121.324 122.358 121.296 122.896 121.403Z" fill="#925249"/>
<path d="M125.27 123.623C124.795 124.038 124.235 124.346 123.63 124.524C122.555 124.956 120.991 125.284 119.323 125.731C117.901 126.065 116.565 126.693 115.4 127.574C114.535 128.272 114.2 128.921 114.13 128.879C114.319 128.269 114.686 127.729 115.184 127.33C116.341 126.334 117.72 125.631 119.204 125.277C120.907 124.831 122.45 124.579 123.525 124.209C124.6 123.84 125.235 123.546 125.27 123.623Z" fill="#925249"/>
<path d="M115.128 131.05C115.335 130.85 115.57 130.68 115.826 130.547C116.308 130.254 117.013 129.849 117.92 129.382C118.827 128.914 119.895 128.405 121.117 127.888C121.731 127.623 122.38 127.365 123.057 127.113L124.097 126.736C124.284 126.666 124.475 126.608 124.67 126.562C124.913 126.519 125.164 126.575 125.368 126.715C125.551 126.866 125.685 127.068 125.753 127.296C125.822 127.523 125.821 127.766 125.751 127.993C125.619 128.38 125.377 128.719 125.053 128.97C124.479 129.388 123.864 129.748 123.218 130.045C122.143 130.493 121.105 131.022 120.112 131.629C119.218 132.215 118.512 133.046 118.08 134.023C118.087 133.725 118.171 133.434 118.325 133.179C118.704 132.456 119.249 131.834 119.916 131.364C120.899 130.702 121.941 130.132 123.029 129.661C123.642 129.371 124.224 129.02 124.767 128.614C125.029 128.426 125.229 128.163 125.34 127.86C125.38 127.724 125.38 127.58 125.341 127.443C125.301 127.307 125.223 127.185 125.116 127.092C124.928 126.925 124.621 127.043 124.251 127.176L123.218 127.539C122.52 127.783 121.899 128.035 121.284 128.279C120.056 128.774 118.974 129.256 118.067 129.675C116.259 130.526 115.17 131.113 115.128 131.05Z" fill="#925249"/>
<path d="M163.171 73.1018C163.234 73.1018 162.822 73.6183 161.901 73.709C161.666 73.7171 161.431 73.6912 161.203 73.6323C160.917 73.5771 160.646 73.463 160.407 73.2972C160.142 73.0969 159.935 72.8295 159.807 72.5224C159.715 72.1831 159.703 71.8272 159.772 71.4824C159.845 71.1478 159.99 70.8333 160.198 70.5611C160.278 70.4029 160.395 70.2664 160.54 70.1632C160.627 70.1258 160.721 70.1064 160.815 70.1064C160.91 70.1064 161.004 70.1258 161.091 70.1632L162.536 70.596C162.992 70.7031 163.433 70.8673 163.848 71.0846C163.374 71.0714 162.904 70.9915 162.452 70.8472L160.986 70.4913C160.847 70.4913 160.756 70.4494 160.693 70.4913C160.601 70.5742 160.525 70.6736 160.47 70.7844C160.29 71.0218 160.163 71.2958 160.1 71.5871C160.036 71.8674 160.036 72.1584 160.1 72.4387C160.197 72.6821 160.356 72.8962 160.561 73.0599C160.951 73.3248 161.409 73.4725 161.88 73.4857C162.335 73.4628 162.778 73.3312 163.171 73.1018Z" fill="#263238"/>
<path d="M132.837 135.293L133.102 135.838C133.116 135.862 133.135 135.883 133.158 135.9C133.181 135.917 133.207 135.929 133.234 135.935L133.835 136.019C133.868 136.023 133.898 136.037 133.924 136.058C133.949 136.079 133.968 136.107 133.979 136.138C133.989 136.17 133.99 136.203 133.982 136.235C133.974 136.267 133.956 136.297 133.932 136.319L133.5 136.745C133.479 136.764 133.463 136.788 133.455 136.815C133.446 136.842 133.445 136.871 133.451 136.899L133.549 137.499C133.555 137.531 133.552 137.564 133.54 137.595C133.528 137.625 133.508 137.652 133.482 137.672C133.456 137.691 133.424 137.703 133.392 137.706C133.359 137.709 133.326 137.702 133.297 137.687L132.76 137.401C132.734 137.388 132.705 137.381 132.676 137.381C132.647 137.381 132.618 137.388 132.592 137.401L132.055 137.687C132.026 137.702 131.993 137.709 131.96 137.706C131.928 137.703 131.896 137.691 131.87 137.672C131.844 137.652 131.824 137.625 131.812 137.595C131.8 137.564 131.797 137.531 131.804 137.499L131.901 136.899C131.907 136.871 131.906 136.842 131.897 136.815C131.889 136.788 131.873 136.764 131.852 136.745L131.42 136.319C131.396 136.297 131.378 136.267 131.37 136.235C131.362 136.203 131.363 136.17 131.373 136.138C131.384 136.107 131.403 136.079 131.428 136.058C131.454 136.037 131.484 136.023 131.517 136.019L132.118 135.935C132.145 135.929 132.171 135.917 132.194 135.9C132.217 135.883 132.236 135.862 132.25 135.838L132.515 135.293C132.531 135.264 132.554 135.239 132.582 135.222C132.611 135.205 132.643 135.196 132.676 135.196C132.709 135.196 132.741 135.205 132.77 135.222C132.798 135.239 132.821 135.264 132.837 135.293Z" fill="#E0E0E0"/>
<path d="M175.666 99.8766L175.931 100.421C175.945 100.445 175.964 100.467 175.987 100.484C176.01 100.5 176.036 100.512 176.064 100.519L176.664 100.603C176.697 100.607 176.728 100.62 176.753 100.641C176.779 100.662 176.798 100.69 176.808 100.722C176.818 100.753 176.819 100.787 176.811 100.819C176.803 100.851 176.786 100.88 176.762 100.903L176.329 101.328C176.308 101.347 176.292 101.372 176.284 101.399C176.275 101.426 176.274 101.454 176.28 101.482L176.385 102.082C176.389 102.115 176.385 102.148 176.372 102.178C176.359 102.208 176.338 102.234 176.312 102.254C176.285 102.273 176.254 102.285 176.221 102.288C176.189 102.291 176.156 102.285 176.126 102.271L175.589 101.985C175.563 101.971 175.534 101.963 175.505 101.963C175.476 101.963 175.447 101.971 175.421 101.985L174.891 102.271C174.861 102.285 174.828 102.291 174.796 102.288C174.763 102.285 174.732 102.273 174.705 102.254C174.679 102.234 174.658 102.208 174.645 102.178C174.633 102.148 174.628 102.115 174.633 102.082L174.737 101.482C174.74 101.454 174.737 101.425 174.727 101.399C174.717 101.372 174.702 101.348 174.681 101.328L174.249 100.903C174.225 100.88 174.207 100.851 174.199 100.819C174.191 100.787 174.192 100.753 174.202 100.722C174.213 100.69 174.232 100.662 174.257 100.641C174.283 100.62 174.314 100.607 174.346 100.603L174.947 100.519C174.974 100.512 175 100.5 175.023 100.484C175.046 100.467 175.065 100.445 175.079 100.421L175.345 99.8766C175.36 99.8474 175.383 99.8229 175.411 99.8059C175.44 99.7888 175.472 99.7798 175.505 99.7798C175.538 99.7798 175.571 99.7888 175.599 99.8059C175.627 99.8229 175.65 99.8474 175.666 99.8766Z" fill="#E0E0E0"/>
<path d="M167.932 137.429L168.197 137.973C168.21 137.999 168.228 138.022 168.251 138.039C168.274 138.056 168.301 138.067 168.33 138.071L168.93 138.155C168.963 138.16 168.993 138.175 169.019 138.197C169.044 138.219 169.062 138.247 169.072 138.279C169.082 138.31 169.084 138.344 169.076 138.377C169.068 138.409 169.051 138.438 169.028 138.462L168.595 138.881C168.574 138.901 168.558 138.926 168.548 138.954C168.538 138.982 168.535 139.012 168.539 139.041L168.644 139.635C168.651 139.668 168.649 139.702 168.637 139.734C168.625 139.766 168.604 139.793 168.576 139.813C168.549 139.833 168.516 139.845 168.482 139.847C168.449 139.848 168.415 139.84 168.386 139.823L167.855 139.537C167.801 139.516 167.742 139.516 167.688 139.537L167.15 139.823C167.121 139.837 167.088 139.843 167.055 139.84C167.022 139.837 166.991 139.825 166.965 139.806C166.938 139.787 166.917 139.761 166.905 139.73C166.892 139.7 166.887 139.667 166.892 139.635L166.997 139.041C167.003 139.013 167.002 138.983 166.994 138.954C166.985 138.926 166.969 138.901 166.948 138.881L166.515 138.462C166.491 138.438 166.475 138.409 166.467 138.377C166.459 138.344 166.46 138.31 166.47 138.279C166.481 138.247 166.499 138.219 166.524 138.197C166.549 138.175 166.58 138.16 166.613 138.155L167.213 138.071C167.241 138.067 167.268 138.056 167.292 138.039C167.315 138.022 167.333 137.999 167.346 137.973L167.611 137.429C167.626 137.4 167.649 137.375 167.678 137.358C167.706 137.341 167.738 137.332 167.771 137.332C167.804 137.332 167.837 137.341 167.865 137.358C167.893 137.375 167.917 137.4 167.932 137.429Z" fill="#E0E0E0"/>
<path d="M132.976 104.058L133.493 105.091C133.515 105.141 133.55 105.184 133.594 105.217C133.638 105.25 133.69 105.271 133.744 105.279L134.896 105.447C134.957 105.456 135.015 105.483 135.063 105.523C135.11 105.564 135.145 105.617 135.164 105.677C135.183 105.736 135.185 105.8 135.169 105.86C135.154 105.921 135.122 105.976 135.077 106.019L134.253 106.829C134.213 106.866 134.182 106.913 134.165 106.966C134.148 107.019 134.145 107.075 134.156 107.129L134.351 108.274C134.361 108.336 134.353 108.4 134.329 108.458C134.304 108.517 134.264 108.567 134.213 108.604C134.161 108.641 134.101 108.663 134.038 108.667C133.975 108.672 133.912 108.659 133.856 108.63L132.837 108.092C132.788 108.065 132.732 108.05 132.676 108.05C132.62 108.05 132.565 108.065 132.515 108.092L131.496 108.63C131.44 108.659 131.377 108.672 131.314 108.667C131.251 108.663 131.191 108.641 131.139 108.604C131.088 108.567 131.048 108.517 131.023 108.458C130.999 108.4 130.991 108.336 131.001 108.274L131.196 107.129C131.207 107.075 131.204 107.019 131.187 106.966C131.17 106.913 131.139 106.866 131.099 106.829L130.275 106.019C130.23 105.976 130.198 105.921 130.183 105.86C130.167 105.8 130.169 105.736 130.188 105.677C130.207 105.617 130.242 105.564 130.289 105.523C130.337 105.483 130.395 105.456 130.456 105.447L131.608 105.279C131.662 105.271 131.714 105.25 131.758 105.217C131.802 105.184 131.837 105.141 131.859 105.091L132.376 104.058C132.404 104.002 132.446 103.955 132.499 103.922C132.552 103.889 132.614 103.872 132.676 103.872C132.738 103.872 132.8 103.889 132.853 103.922C132.906 103.955 132.948 104.002 132.976 104.058Z" fill="#E0E0E0"/>
<path d="M174.451 131.922L174.877 132.787C174.898 132.829 174.928 132.865 174.966 132.891C175.004 132.918 175.048 132.935 175.093 132.941L176.05 133.08C176.102 133.087 176.152 133.109 176.193 133.143C176.233 133.177 176.263 133.222 176.28 133.272C176.296 133.323 176.297 133.377 176.284 133.428C176.27 133.48 176.242 133.526 176.203 133.562L175.505 134.26C175.473 134.293 175.449 134.332 175.434 134.376C175.42 134.42 175.415 134.466 175.422 134.511L175.589 135.461C175.6 135.513 175.596 135.568 175.577 135.618C175.557 135.669 175.524 135.712 175.48 135.744C175.437 135.776 175.385 135.794 175.331 135.797C175.277 135.8 175.224 135.788 175.177 135.761L174.319 135.314C174.28 135.29 174.235 135.277 174.19 135.277C174.144 135.277 174.099 135.29 174.06 135.314L173.202 135.761C173.155 135.788 173.102 135.8 173.048 135.797C172.994 135.794 172.942 135.776 172.899 135.744C172.855 135.712 172.822 135.669 172.803 135.618C172.783 135.568 172.779 135.513 172.79 135.461L172.958 134.511C172.964 134.466 172.959 134.42 172.945 134.376C172.93 134.332 172.906 134.293 172.874 134.26L172.176 133.562C172.137 133.526 172.109 133.48 172.096 133.428C172.082 133.377 172.084 133.323 172.1 133.272C172.116 133.222 172.146 133.177 172.187 133.143C172.227 133.109 172.277 133.087 172.329 133.08L173.286 132.941C173.331 132.934 173.375 132.917 173.412 132.89C173.45 132.863 173.481 132.828 173.502 132.787L173.928 131.922C173.948 131.868 173.983 131.822 174.03 131.79C174.077 131.757 174.133 131.74 174.19 131.74C174.247 131.74 174.302 131.757 174.349 131.79C174.396 131.822 174.431 131.868 174.451 131.922Z" fill="#E0E0E0"/>
<path d="M139.893 122.052V130.735H137.883V127.175H133.932V130.735H131.922V122.052H133.932V125.479H137.883V122.052H139.893Z" fill="#263238"/>
<path d="M148.318 127.943H143.306C143.407 128.359 143.656 128.725 144.007 128.972C144.357 129.218 144.786 129.329 145.212 129.283C145.52 129.296 145.828 129.246 146.116 129.135C146.404 129.025 146.666 128.856 146.887 128.641L147.92 129.758C147.568 130.129 147.138 130.419 146.662 130.606C146.185 130.793 145.674 130.872 145.163 130.84C142.859 130.84 141.352 129.388 141.352 127.398C141.346 126.935 141.436 126.475 141.615 126.047C141.794 125.619 142.059 125.232 142.393 124.911C142.727 124.589 143.124 124.339 143.558 124.176C143.992 124.013 144.455 123.941 144.919 123.964C145.384 123.937 145.85 124.008 146.286 124.174C146.722 124.34 147.118 124.596 147.447 124.925C147.777 125.255 148.033 125.651 148.199 126.087C148.365 126.523 148.436 126.989 148.409 127.454C148.353 127.573 148.332 127.782 148.318 127.943ZM143.243 126.819H146.531C146.464 126.432 146.262 126.08 145.961 125.827C145.661 125.574 145.28 125.435 144.887 125.435C144.494 125.435 144.114 125.574 143.813 125.827C143.512 126.08 143.31 126.432 143.243 126.819Z" fill="#263238"/>
<path d="M149.651 121.549H151.584V130.756H149.651V121.549Z" fill="#263238"/>
<path d="M160.658 127.399C160.686 127.848 160.619 128.298 160.463 128.721C160.307 129.143 160.064 129.528 159.751 129.852C159.438 130.176 159.061 130.431 158.644 130.601C158.227 130.771 157.779 130.852 157.329 130.84C156.955 130.858 156.582 130.794 156.235 130.655C155.888 130.515 155.576 130.302 155.319 130.03V133.143H153.385V124.069H155.235V124.837C155.496 124.544 155.82 124.314 156.183 124.164C156.545 124.014 156.937 123.948 157.329 123.971C157.778 123.959 158.224 124.04 158.641 124.209C159.057 124.378 159.433 124.632 159.746 124.954C160.059 125.276 160.301 125.66 160.459 126.081C160.616 126.501 160.684 126.95 160.658 127.399ZM158.697 127.399C158.669 127.069 158.545 126.756 158.342 126.496C158.138 126.235 157.863 126.04 157.55 125.933C157.238 125.827 156.901 125.813 156.581 125.894C156.261 125.976 155.971 126.149 155.747 126.392C155.524 126.635 155.375 126.937 155.321 127.263C155.266 127.589 155.307 127.924 155.439 128.226C155.571 128.529 155.789 128.787 156.065 128.968C156.341 129.15 156.664 129.247 156.994 129.248C157.231 129.251 157.466 129.204 157.684 129.11C157.902 129.017 158.097 128.878 158.258 128.703C158.419 128.529 158.541 128.323 158.617 128.098C158.692 127.873 158.72 127.635 158.697 127.399Z" fill="#263238"/>
<path d="M164.072 124.209H165.782V125.737H164.121V130.77H162.187V125.737H161.154V124.244H162.187V123.951C162.163 123.61 162.213 123.268 162.336 122.95C162.458 122.631 162.648 122.343 162.894 122.106C163.14 121.869 163.434 121.689 163.757 121.578C164.08 121.467 164.424 121.429 164.763 121.466C165.281 121.444 165.794 121.57 166.243 121.829L165.733 123.225C165.508 123.048 165.231 122.95 164.944 122.945C164.372 122.945 164.065 123.252 164.065 123.916L164.072 124.209Z" fill="#263238"/>
<path d="M173.474 124.062V130.735H171.638V129.925C171.375 130.217 171.051 130.448 170.69 130.603C170.328 130.757 169.937 130.831 169.544 130.819C167.869 130.819 166.696 129.876 166.696 127.81V124.041H168.63V127.531C168.63 128.648 169.125 129.143 169.984 129.143C170.842 129.143 171.519 128.571 171.519 127.343V124.062H173.474Z" fill="#263238"/>
<path d="M175.282 121.549H177.215V130.756H175.282V121.549Z" fill="#263238"/>
<path d="M158.307 105.936C158.306 104.937 158.038 103.956 157.529 103.096C157.021 102.236 156.291 101.528 155.416 101.046C154.54 100.564 153.552 100.326 152.553 100.356C151.554 100.386 150.582 100.684 149.738 101.218C148.893 101.753 148.208 102.503 147.752 103.393C147.297 104.282 147.089 105.278 147.149 106.275C147.209 107.272 147.536 108.235 148.095 109.063C148.655 109.891 149.426 110.554 150.329 110.982V112.378H155.215C155.215 112.378 155.249 111.589 155.256 110.878C156.169 110.413 156.937 109.706 157.475 108.834C158.013 107.963 158.3 106.96 158.307 105.936Z" fill="#274AA4"/>
<path d="M155.228 113.313H150.342C150.253 113.319 150.165 113.29 150.097 113.231C150.029 113.172 149.987 113.089 149.979 112.999C149.987 112.91 150.029 112.827 150.097 112.768C150.165 112.709 150.253 112.679 150.342 112.685H155.228C155.318 112.679 155.406 112.709 155.474 112.768C155.542 112.827 155.584 112.91 155.591 112.999C155.584 113.089 155.542 113.172 155.474 113.231C155.406 113.29 155.318 113.319 155.228 113.313Z" fill="#263238"/>
<path d="M154.851 113.593H150.663C150.58 113.593 150.5 113.626 150.441 113.685C150.382 113.744 150.349 113.824 150.349 113.907C150.349 113.99 150.382 114.07 150.441 114.129C150.5 114.188 150.58 114.221 150.663 114.221H151.124L151.738 115.387C151.772 115.454 151.824 115.51 151.888 115.55C151.952 115.589 152.026 115.61 152.101 115.61H153.56C153.635 115.609 153.708 115.587 153.772 115.548C153.836 115.509 153.888 115.453 153.923 115.387L154.516 114.221H154.83C154.914 114.221 154.993 114.188 155.052 114.129C155.111 114.07 155.144 113.99 155.144 113.907C155.144 113.824 155.111 113.744 155.052 113.685C154.993 113.626 154.914 113.593 154.83 113.593H154.851Z" fill="#263238"/>
<path d="M153.867 115.484C153.767 115.463 153.669 115.433 153.574 115.393C153.347 115.33 153.112 115.301 152.876 115.31C152.639 115.316 152.403 115.358 152.178 115.435C152.086 115.479 151.99 115.514 151.892 115.54C151.972 115.476 152.061 115.427 152.157 115.393C152.379 115.3 152.615 115.248 152.855 115.24C153.093 115.234 153.33 115.272 153.553 115.352C153.665 115.376 153.772 115.421 153.867 115.484Z" fill="#455A64"/>
<path d="M154.551 114.235C154.551 114.235 153.79 114.27 152.848 114.27C151.906 114.27 151.152 114.27 151.152 114.235C151.152 114.2 151.913 114.235 152.848 114.235C153.783 114.235 154.551 114.221 154.551 114.235Z" fill="#455A64"/>
<path d="M154.258 114.737C154.12 114.763 153.98 114.777 153.84 114.779L152.841 114.814C152.444 114.814 152.095 114.814 151.836 114.814C151.697 114.825 151.557 114.825 151.417 114.814C151.557 114.797 151.697 114.797 151.836 114.814H152.841H153.84C153.976 114.772 154.116 114.747 154.258 114.737Z" fill="#455A64"/>
<path d="M167.695 101.315C166.563 101.716 165.394 102.001 164.205 102.167C163.047 102.449 161.864 102.613 160.673 102.655C161.805 102.258 162.974 101.975 164.163 101.811C165.321 101.528 166.504 101.362 167.695 101.315Z" fill="#263238"/>
<path d="M161.015 94.7676C160.548 95.7337 159.974 96.6444 159.305 97.4828C158.732 98.3878 158.06 99.2259 157.301 99.9816C157.768 99.0156 158.342 98.1048 159.011 97.2664C159.584 96.3614 160.256 95.5233 161.015 94.7676Z" fill="#263238"/>
<path d="M152.164 90.5308C152.343 91.7763 152.404 93.036 152.346 94.293C152.404 95.55 152.343 96.8097 152.164 98.0552C151.985 96.8097 151.924 95.55 151.983 94.293C151.924 93.036 151.985 91.7763 152.164 90.5308Z" fill="#263238"/>
<path d="M147.404 99.5419C146.8 99.1306 146.267 98.6237 145.826 98.0412C145.299 97.5376 144.858 96.9503 144.521 96.3032C145.128 96.7082 145.661 97.2133 146.098 97.7969C146.627 98.3024 147.068 98.8921 147.404 99.5419Z" fill="#263238"/>
<path d="M146.001 103.144C144.705 103.07 143.42 102.874 142.162 102.558C140.88 102.358 139.618 102.042 138.393 101.615C139.688 101.685 140.974 101.881 142.232 102.202C143.514 102.4 144.776 102.716 146.001 103.144Z" fill="#263238"/>
<path d="M145.742 106.976C145.119 107.403 144.431 107.729 143.704 107.939C143.02 108.256 142.29 108.463 141.541 108.553C142.162 108.128 142.848 107.805 143.572 107.597C144.259 107.28 144.991 107.071 145.742 106.976Z" fill="#263238"/>
<path d="M164.232 108.232C163.544 108.174 162.871 107.996 162.243 107.709C161.573 107.533 160.94 107.24 160.373 106.843C161.731 107.078 163.038 107.55 164.232 108.239V108.232Z" fill="#263238"/>
<path d="M151.222 101.433C151.222 101.489 150.838 101.594 150.279 101.922C149.551 102.338 148.956 102.953 148.564 103.694C148.173 104.436 148 105.274 148.067 106.11C148.109 106.752 148.248 107.143 148.192 107.164C147.968 106.867 147.837 106.51 147.815 106.138C147.676 105.245 147.829 104.331 148.251 103.532C148.674 102.733 149.344 102.092 150.161 101.706C150.479 101.51 150.849 101.415 151.222 101.433Z" fill="white"/>
<path d="M152.862 101.133C152.862 101.231 152.778 101.336 152.639 101.364C152.499 101.392 152.366 101.329 152.352 101.231C152.338 101.133 152.436 101.029 152.576 101.001C152.715 100.973 152.82 101.036 152.862 101.133Z" fill="white"/>
<path d="M157.532 104.986C157.661 105.263 157.71 105.57 157.671 105.873C157.653 106.601 157.476 107.316 157.154 107.969C156.833 108.622 156.373 109.197 155.808 109.656C155.368 109.998 155.047 110.124 155.019 110.089C155.777 109.466 156.393 108.688 156.826 107.809C157.259 106.929 157.5 105.967 157.532 104.986Z" fill="white"/>
<path d="M111.464 72.2921L108.414 66.0729C110.331 60.8484 110.225 55.0955 108.117 49.945C106.008 44.7945 102.05 40.6188 97.0189 38.2388C91.9881 35.8587 86.2491 35.4463 80.9297 37.0826C75.6103 38.7189 71.0953 42.2857 68.272 47.0818C65.4488 51.8779 64.5215 57.5565 65.6724 63.0016C66.8233 68.4467 69.9691 73.2644 74.4917 76.5079C79.0142 79.7514 84.5863 81.1861 90.1129 80.53C95.6394 79.8738 100.721 77.1744 104.358 72.9622L111.464 72.2921Z" fill="white"/>
<path d="M111.464 72.2921L111.024 72.3479L109.677 72.4945L104.365 73.0459C104.354 73.0479 104.344 73.0476 104.333 73.0451C104.323 73.0426 104.313 73.0379 104.304 73.0313C104.296 73.0247 104.288 73.0164 104.283 73.0069C104.278 72.9974 104.275 72.9869 104.274 72.9761C104.274 72.9761 104.274 72.9761 104.274 72.9342L104.407 73.018C101.996 75.8362 98.9202 78.0096 95.4586 79.3419C94.3793 79.7604 93.2683 80.0919 92.1361 80.333C90.9181 80.5736 89.6839 80.7229 88.4437 80.7798C82.6747 81.0522 77.0265 79.0668 72.6968 75.2446C70.2649 73.0962 68.3246 70.4488 67.0081 67.4829C65.607 64.327 64.9617 60.8877 65.1235 57.4386C65.265 53.8227 66.2985 50.2979 68.1319 47.178L68.8299 45.9914L69.6465 44.8816L70.0514 44.3302L70.5051 43.8137L71.4125 42.7946C71.7266 42.4735 72.0686 42.1804 72.3967 41.8663C72.7197 41.5522 73.0599 41.2562 73.4158 40.9798C74.1086 40.4204 74.8359 39.9052 75.5935 39.4372C78.4411 37.6331 81.6627 36.5023 85.0131 36.131C88.3636 35.7596 91.7546 36.1575 94.9281 37.2944C100.392 39.2247 104.896 43.1977 107.492 48.3786C108.05 49.5026 108.517 50.6697 108.888 51.8686C109.21 52.9826 109.462 54.1155 109.642 55.2609C110.172 58.9262 109.771 62.6659 108.476 66.1357V66.0799C109.453 68.1111 110.207 69.6746 110.717 70.7495L111.282 71.9361L111.464 72.327L111.247 71.9152C111.108 71.636 110.905 71.2172 110.64 70.7286C110.117 69.6746 109.342 68.139 108.344 66.1427C108.339 66.1342 108.336 66.1246 108.336 66.1148C108.336 66.105 108.339 66.0953 108.344 66.0869C109.592 62.6349 109.964 58.9269 109.426 55.2958C109.237 54.1646 108.98 53.0458 108.658 51.9454C108.279 50.7766 107.812 49.6379 107.262 48.5391C105.885 45.7878 103.947 43.3555 101.572 41.399C99.1977 39.4425 96.4396 38.0053 93.4757 37.18C90.5118 36.3547 87.4079 36.1596 84.3639 36.6073C81.32 37.0549 78.4037 38.1355 75.8029 39.7792C75.0531 40.2378 74.3349 40.7462 73.6531 41.3009C73.3043 41.5703 72.971 41.8593 72.6549 42.1664C72.3338 42.4735 71.9569 42.7667 71.6847 43.0878L70.7913 44.0859L70.3515 44.5885L69.9467 45.1329L69.151 46.2288L68.453 47.3944C66.6513 50.4642 65.6348 53.9309 65.4935 57.4875C65.3303 60.8821 65.9587 64.2682 67.3292 67.3782C68.6188 70.3081 70.5232 72.9265 72.9132 75.0562C77.1794 78.8333 82.7437 80.8098 88.4367 80.5704C89.6607 80.5216 90.8789 80.3769 92.0803 80.1376C93.2021 79.907 94.3038 79.5872 95.3748 79.1813C98.8122 77.8796 101.874 75.7479 104.288 72.9761C104.301 72.9632 104.317 72.9552 104.335 72.9533C104.353 72.9514 104.371 72.9558 104.386 72.9657C104.401 72.9757 104.412 72.9905 104.417 73.0077C104.422 73.0249 104.421 73.0434 104.414 73.0599L104.337 72.9482L109.607 72.4945L111.003 72.3828L111.464 72.2921Z" fill="#263238"/>
<path d="M77.2197 59.8815L80.0955 57.0058L85.6516 61.9406L96.5543 51.4497L99.2277 54.3324L85.2398 67.4967L77.2197 59.8815Z" fill="#274AA4"/>
</svg>
